<svg xmlns="http://www.w3.org/2000/svg" xmlns:xlink="http://www.w3.org/1999/xlink" aria-hidden="true" role="img" class="iconify iconify--logos" width="31.88" height="32" preserveAspectRatio="xMidYMid meet" viewBox="0 0 256 257"><defs><linearGradient id="IconifyId1813088fe1fbc01fb466" x1="-.828%" x2="57.636%" y1="7.652%" y2="78.411%"><stop offset="0%" stop-color="#41D1FF"></stop><stop offset="100%" stop-color="#BD34FE"></stop></linearGradient><linearGradient id="IconifyId1813088fe1fbc01fb467" x1="43.376%" x2="50.316%" y1="2.242%" y2="89.03%"><stop offset="0%" stop-color="#FFEA83"></stop><stop offset="8.333%" stop-color="#FFDD35"></stop><stop offset="100%" stop-color="#FFA800"></stop></linearGradient></defs><path fill="url(#IconifyId1813088fe1fbc01fb466)" d="M255.153 37.938L134.897 252.976c-2.483 4.44-8.862 4.466-11.382.048L.875 37.958c-2.746-4.814 1.371-10.646 6.827-9.67l120.385 21.517a6.537 6.537 0 0 0 2.322-.004l117.867-21.483c5.438-.991 9.574 4.796 6.877 9.62Z"></path><path fill="url(#IconifyId1813088fe1fbc01fb467)" d="M185.432.063L96.44 17.501a3.268 3.268 0 0 0-2.634 3.014l-5.474 92.456a3.268 3.268 0 0 0 3.997 3.378l24.777-5.718c2.318-.535 4.413 1.507 3.936 3.838l-7.361 36.047c-.495 2.426 1.782 4.5 4.151 3.78l15.304-4.649c2.372-.72 4.652 1.36 4.15 3.788l-11.698 56.621c-.732 3.542 3.979 5.473 5.943 2.437l1.313-2.028l72.516-144.72c1.215-2.423-.88-5.186-3.54-4.672l-25.505 4.922c-2.396.462-4.435-1.77-3.759-4.114l16.646-57.705c.677-2.35-1.37-4.583-3.769-4.113Z"></path></svg<?xml version="1.0" encoding="utf-8"?>
<svg viewBox="0 0 500 500" xmlns="http://www.w3.org/2000/svg">
  <path style="stroke: rgba(0, 0, 0, 0); fill: rgb(255, 0, 0); transform-origin: 222.022px 265.373px;" d="M 129.485 445.769 C 129.022 445.799 90.286 223.66 118.157 221.825 C 242.043 509.338 359.434 426.023 359.353 425.835 C 88.588 311.078 117.966 48.085 95.532 89.321 C 73.098 130.557 85.991 340.764 129.485 445.769 Z" transform="matrix(-1, 0, 0, -1, 0, -0.000061035156)"/>
  <path style="stroke: rgba(0, 0, 0, 0); paint-order: fill; fill: rgb(117, 0, 255);" d="M 193.366 78.164 C 192.903 78.134 154.167 300.273 182.038 302.108 C 305.924 14.595 423.315 97.91 423.234 98.098 C 152.469 212.855 181.847 475.848 159.413 434.612 C 136.979 393.376 149.872 183.169 193.366 78.164 Z"/>
  <path style="fill: rgb(255, 0, 0); stroke: rgba(0, 0, 0, 0); transform-origin: 148.566px 133.168px;" d="M 224.99 174.059 C 182.825 153.98 150.883 136.954 136.975 126.323 C 103.624 100.83 123.249 116.299 72.142 86.643 C 104.495 187.419 157.083 186.148 224.99 174.059 Z" transform="matrix(-1, 0, 0, -1, 12.755035400391, 12.401275634766)"/>
</svg>