<svg width="834" height="1117" viewBox="0 0 834 1117" fill="none" xmlns="http://www.w3.org/2000/svg">
<g clip-path="url(#clip0_539_7)">
<g filter="url(#filter0_d_539_7)">
<path d="M145.5 1017.5L402.5 1168.5L915 1234.5L930 781L770 732L660 714.5L528 722.5L338.5 750.5L91.5 781L83.5 874.5L145.5 1017.5Z" fill="#80EE7E"/>
</g>
<g filter="url(#filter1_d_539_7)">
<path d="M181 903L92 782L333 749L529.5 724H596L657.5 713L774.5 733L841.5 755.5L905 796.5L851.5 952L747.5 976L641 919.5H481L354.5 943.5L181 903Z" fill="#25DE42" fill-opacity="0.28" shape-rendering="crispEdges"/>
</g>
<g filter="url(#filter2_d_539_7)">
<path d="M629 597.5L551.5 700.5L480.5 714.5L403.5 743.5L370 762L429.5 743.5L493.5 730L545.5 726.5L565 730L545.5 757L519.5 805.5L554 851.5L535.5 805.5L579 757L616 730H683L806 768L735 730L652 707L683 582L735 548L746.5 471L722.5 537.5L668.5 565.5L579 491.5L662 471L710 394L704 370V394L652 462.5L570.5 478L579 456L562.5 419L535.5 370L554 419L562.5 456L554 471L444 427L403.5 402L436.5 434.5L554 485.5L629 597.5Z" fill="#BF7878"/>
</g>
<g filter="url(#filter3_d_539_7)">
<path d="M366 337L516.5 455.5L663 424L788.5 321.5L775 184.5L663 27L490 67.5L403 147.5L366 337Z" fill="#6F6B71"/>
</g>
<g filter="url(#filter4_d_539_7)">
<path d="M295 481L500.5 455L599.5 344L534.5 203L374 171L227.5 240L168 344L295 481Z" fill="#867D8C"/>
</g>
<g filter="url(#filter5_d_539_7)">
<path d="M516 439.135L673.781 500L762.439 464.907L797 366.755L762.439 260.378L661.759 171L552.064 278.473L516 439.135Z" fill="#958A9C"/>
</g>
<g filter="url(#filter6_d_539_7)">
<path d="M620 451.5L685 520H819L884.5 451.5L806 298L701.5 334L620 451.5Z" fill="#B4A6BE"/>
</g>
<g filter="url(#filter7_d_539_7)">
<path d="M338 355L406 461H511L583.5 427.5V290.5L493.5 191L416.5 219L338 355Z" fill="#A196A8"/>
</g>
<path d="M193.5 717L198 797.5H210.5V714L193.5 717Z" fill="#60C46A"/>
<path d="M242.5 726.767L164.5 716.767L149 699.5L161 685L242.5 672.5V726.767Z" fill="#60C46A"/>
<path d="M233 725L237 674L242.5 672.5V726.5L233 725Z" fill="#66CE70" style="mix-blend-mode:lighten"/>
<path d="M203 797.5L207.5 722H210.5V797.5H203Z" fill="#68D273" style="mix-blend-mode:lighten"/>
<g filter="url(#filter8_d_539_7)">
<path d="M378 732.182L393.543 770H412.417L425 755.455L407.976 761.636L412.417 747.455L405.016 755.455L407.976 714L402.425 747.455L393.543 738.727L397.614 759.091L378 732.182Z" fill="#25DE42"/>
</g>
<g filter="url(#filter9_d_539_7)">
<path d="M331 788.182L346.543 826H365.417L378 811.455L360.976 817.636L365.417 803.455L358.016 811.455L360.976 770L355.425 803.455L346.543 794.727L350.614 815.091L331 788.182Z" fill="#25DE42"/>
</g>
<g filter="url(#filter10_d_539_7)">
<path d="M348 811.455L352.543 826H371.417L391.5 797L366.976 817.636L371.417 803.455L364.5 813L359 789V803.455L349.5 802L356.614 815.091L348 811.455Z" fill="#25DE42"/>
</g>
<g filter="url(#filter11_d_539_7)">
<path d="M250.5 869.5L255.827 906H282.331L312 894.571L276.094 899.429L289 887L271.937 894.571L276.094 862L266.5 892L261.543 872V897.429L250.5 869.5Z" fill="#25DE42"/>
</g>
<g filter="url(#filter12_d_539_7)">
<path d="M144 804.182L159.543 842H178.417L191 827.455L173.976 833.636L178.417 819.455L171.016 827.455L173.976 786L168.425 819.455L159.543 810.727L163.614 831.091L144 804.182Z" fill="#25DE42"/>
</g>
<g filter="url(#filter13_d_539_7)">
<path d="M172 780.39L187.543 802H206.417L219 793.688L201.976 797.221L206.417 789.117L199.016 793.688L201.976 770L196.425 789.117L187.543 784.13L191.614 795.766L172 780.39Z" fill="#25DE42"/>
</g>
<g filter="url(#filter14_d_539_7)">
<path d="M427.25 893.085L438.113 905.076L461.134 900.821L472.708 883.732L453.644 895.169L472.2 876.469L448.429 891.604L447.492 878.197L442.781 891.999L430.236 874.913L438.113 896.255L427.25 893.085Z" fill="#25DE42"/>
</g>
<g filter="url(#filter15_d_539_7)">
<path d="M415.962 909.261L402.907 873.084L418.938 894.472L426.824 884.443L427.937 858.302L432.726 876.937L445.174 861.106L433.784 881.053L436.91 893.216L447.996 879.956L440.294 899.176L462.461 878.944L447.8 898.651L450.82 906L415.962 909.261Z" fill="#25DE42"/>
</g>
<g filter="url(#filter16_d_539_7)">
<path d="M463 704.182L478.543 742H497.417L510 727.455L492.976 733.636L497.417 719.455L490.016 727.455L492.976 686L487.425 719.455L478.543 710.727L482.614 731.091L463 704.182Z" fill="#25DE42"/>
</g>
<g filter="url(#filter17_d_539_7)">
<path d="M623 763.182L638.543 801H657.417L670 786.455L652.976 792.636L657.417 778.455L650.016 786.455L652.976 745L647.425 778.455L638.543 769.727L642.614 790.091L623 763.182Z" fill="#25DE42"/>
</g>
<g filter="url(#filter18_d_539_7)">
<path d="M708 878L721.258 918.937L751 927.5L754 916.5L772 898.5L754 909.005L743 914L762 884L739.785 907L737.022 860.5L734.278 898.5L723.5 886.5L727.335 909.005L708 878Z" fill="#25DE42"/>
</g>
<g filter="url(#filter19_d_539_7)">
<path d="M596 731.92L606.615 742H629.262L642 725.76L622.185 735.84L642 718.48L617.231 731.92V718.48L611.569 731.92L600.246 714L606.615 735.84L596 731.92Z" fill="#25DE42"/>
</g>
<g filter="url(#filter20_d_539_7)">
<path d="M611 731.92L621.615 742H644.262L657 725.76L637.185 735.84L657 718.48L632.231 731.92V718.48L626.569 731.92L615.246 714L621.615 735.84L611 731.92Z" fill="#25DE42"/>
</g>
<g filter="url(#filter21_d_539_7)">
<path d="M584 738.92L594.615 749H617.262L630 732.76L610.185 742.84L630 725.48L605.231 738.92V725.48L599.569 738.92L588.246 721L594.615 742.84L584 738.92Z" fill="#25DE42"/>
</g>
<g filter="url(#filter22_d_539_7)">
<path d="M638 790.92L648.615 801H671.262L684 784.76L664.185 794.84L684 777.48L659.231 790.92V777.48L653.569 790.92L642.246 773L648.615 794.84L638 790.92Z" fill="#25DE42"/>
</g>
<g filter="url(#filter23_d_539_7)">
<path d="M611 797.92L621.615 808H644.262L657 791.76L637.185 801.84L657 784.48L632.231 797.92V784.48L626.569 797.92L615.246 780L621.615 801.84L611 797.92Z" fill="#25DE42"/>
</g>
<g filter="url(#filter24_d_539_7)">
<path d="M647 800.92L657.615 811H680.262L693 794.76L673.185 804.84L693 787.48L668.231 800.92V787.48L662.569 800.92L651.246 783L657.615 804.84L647 800.92Z" fill="#25DE42"/>
</g>
<g filter="url(#filter25_d_539_7)">
<path d="M620 807.92L630.615 818H653.262L666 801.76L646.185 811.84L666 794.48L641.231 807.92V794.48L635.569 807.92L624.246 790L630.615 811.84L620 807.92Z" fill="#25DE42"/>
</g>
<g filter="url(#filter26_d_539_7)">
<path d="M723.675 910.46L732.172 922.38L754.402 926.701L770.005 913.19L748.631 919.304L771.394 906.044L744.516 914.511L747.08 901.318L738.958 913.431L731.262 893.679L733.347 916.333L723.675 910.46Z" fill="#25DE42"/>
</g>
<g filter="url(#filter27_d_539_7)">
<path d="M696.675 917.46L705.172 929.38L727.402 933.701L743.005 920.19L721.631 926.304L744.394 913.044L717.516 921.511L720.08 908.318L711.958 920.431L704.262 900.679L706.347 923.333L696.675 917.46Z" fill="#25DE42"/>
</g>
<g filter="url(#filter28_d_539_7)">
<path d="M721.615 756L711 745.92L721.615 749.84L723.372 740.499L716 728L724.051 736.889L726.569 723.5V739.669L732.231 745.92L740.5 732.5L737.185 749.84L757 739.76L744.262 756H721.615Z" fill="#25DE42"/>
</g>
<g filter="url(#filter29_d_539_7)">
<path d="M734 752.92L744.615 763H767.262L780 746.76L760.185 756.84V738.5L755.231 752.92L749.569 729.5V752.92L739.5 746.76L744.615 756.84L734 752.92Z" fill="#25DE42"/>
</g>
<g filter="url(#filter30_d_539_7)">
<path d="M449 731.92L459.615 742H482.262L495 725.76L475.185 735.84L495 718.48L470.231 731.92V718.48L464.569 731.92L453.246 714L459.615 735.84L449 731.92Z" fill="#25DE42"/>
</g>
<g filter="url(#filter31_d_539_7)">
<path d="M139.009 836.61L151.285 846.46L179.626 849.94L197.194 838.656L171.386 843.83L197.922 832.721L165.579 839.873L166.924 828.915L158.494 839.003L146.117 822.652L151.902 841.437L139.009 836.61Z" fill="#25DE42"/>
</g>
<g filter="url(#filter32_d_539_7)">
<path d="M241.009 899.61L253.285 909.46L281.626 912.94L299.194 901.656L273.386 906.83L299.922 895.721L267.579 902.873L268.924 891.915L260.494 902.003L248.117 885.652L253.902 904.437L241.009 899.61Z" fill="#25DE42"/>
</g>
<g filter="url(#filter33_d_539_7)">
<path d="M192 796.92L202.615 807H225.262L238 790.76L218.185 800.84L238 783.48L213.231 796.92V783.48L207.569 796.92L196.246 779L202.615 800.84L192 796.92Z" fill="#25DE42"/>
</g>
<path d="M178.5 992.5L84.5 879.5L145.5 1016.5L304 1111.5L315.5 1125L729.5 1135.5L688 1090L546.5 1058.5H332.5L178.5 992.5Z" fill="#C0ADAD" style="mix-blend-mode:darken"/>
</g>
<defs>
<filter id="filter0_d_539_7" x="79.5" y="714.5" width="854.5" height="528" filterUnits="userSpaceOnUse" color-interpolation-filters="sRGB">
<feFlood flood-opacity="0" result="BackgroundImageFix"/>
<feColorMatrix in="SourceAlpha" type="matrix" values="0 0 0 0 0 0 0 0 0 0 0 0 0 0 0 0 0 0 127 0" result="hardAlpha"/>
<feOffset dy="4"/>
<feGaussianBlur stdDeviation="2"/>
<feComposite in2="hardAlpha" operator="out"/>
<feColorMatrix type="matrix" values="0 0 0 0 0 0 0 0 0 0 0 0 0 0 0 0 0 0 0.25 0"/>
<feBlend mode="normal" in2="BackgroundImageFix" result="effect1_dropShadow_539_7"/>
<feBlend mode="normal" in="SourceGraphic" in2="effect1_dropShadow_539_7" result="shape"/>
</filter>
<filter id="filter1_d_539_7" x="88" y="713" width="821" height="271" filterUnits="userSpaceOnUse" color-interpolation-filters="sRGB">
<feFlood flood-opacity="0" result="BackgroundImageFix"/>
<feColorMatrix in="SourceAlpha" type="matrix" values="0 0 0 0 0 0 0 0 0 0 0 0 0 0 0 0 0 0 127 0" result="hardAlpha"/>
<feOffset dy="4"/>
<feGaussianBlur stdDeviation="2"/>
<feComposite in2="hardAlpha" operator="out"/>
<feColorMatrix type="matrix" values="0 0 0 0 0 0 0 0 0 0 0 0 0 0 0 0 0 0 0.25 0"/>
<feBlend mode="normal" in2="BackgroundImageFix" result="effect1_dropShadow_539_7"/>
<feBlend mode="normal" in="SourceGraphic" in2="effect1_dropShadow_539_7" result="shape"/>
</filter>
<filter id="filter2_d_539_7" x="366" y="370" width="444" height="489.5" filterUnits="userSpaceOnUse" color-interpolation-filters="sRGB">
<feFlood flood-opacity="0" result="BackgroundImageFix"/>
<feColorMatrix in="SourceAlpha" type="matrix" values="0 0 0 0 0 0 0 0 0 0 0 0 0 0 0 0 0 0 127 0" result="hardAlpha"/>
<feOffset dy="4"/>
<feGaussianBlur stdDeviation="2"/>
<feComposite in2="hardAlpha" operator="out"/>
<feColorMatrix type="matrix" values="0 0 0 0 0 0 0 0 0 0 0 0 0 0 0 0 0 0 0.25 0"/>
<feBlend mode="normal" in2="BackgroundImageFix" result="effect1_dropShadow_539_7"/>
<feBlend mode="normal" in="SourceGraphic" in2="effect1_dropShadow_539_7" result="shape"/>
</filter>
<filter id="filter3_d_539_7" x="362" y="27" width="430.5" height="436.5" filterUnits="userSpaceOnUse" color-interpolation-filters="sRGB">
<feFlood flood-opacity="0" result="BackgroundImageFix"/>
<feColorMatrix in="SourceAlpha" type="matrix" values="0 0 0 0 0 0 0 0 0 0 0 0 0 0 0 0 0 0 127 0" result="hardAlpha"/>
<feOffset dy="4"/>
<feGaussianBlur stdDeviation="2"/>
<feComposite in2="hardAlpha" operator="out"/>
<feColorMatrix type="matrix" values="0 0 0 0 0 0 0 0 0 0 0 0 0 0 0 0 0 0 0.25 0"/>
<feBlend mode="normal" in2="BackgroundImageFix" result="effect1_dropShadow_539_7"/>
<feBlend mode="normal" in="SourceGraphic" in2="effect1_dropShadow_539_7" result="shape"/>
</filter>
<filter id="filter4_d_539_7" x="164" y="171" width="439.5" height="318" filterUnits="userSpaceOnUse" color-interpolation-filters="sRGB">
<feFlood flood-opacity="0" result="BackgroundImageFix"/>
<feColorMatrix in="SourceAlpha" type="matrix" values="0 0 0 0 0 0 0 0 0 0 0 0 0 0 0 0 0 0 127 0" result="hardAlpha"/>
<feOffset dy="4"/>
<feGaussianBlur stdDeviation="2"/>
<feComposite in2="hardAlpha" operator="out"/>
<feColorMatrix type="matrix" values="0 0 0 0 0 0 0 0 0 0 0 0 0 0 0 0 0 0 0.25 0"/>
<feBlend mode="normal" in2="BackgroundImageFix" result="effect1_dropShadow_539_7"/>
<feBlend mode="normal" in="SourceGraphic" in2="effect1_dropShadow_539_7" result="shape"/>
</filter>
<filter id="filter5_d_539_7" x="512" y="171" width="289" height="337" filterUnits="userSpaceOnUse" color-interpolation-filters="sRGB">
<feFlood flood-opacity="0" result="BackgroundImageFix"/>
<feColorMatrix in="SourceAlpha" type="matrix" values="0 0 0 0 0 0 0 0 0 0 0 0 0 0 0 0 0 0 127 0" result="hardAlpha"/>
<feOffset dy="4"/>
<feGaussianBlur stdDeviation="2"/>
<feComposite in2="hardAlpha" operator="out"/>
<feColorMatrix type="matrix" values="0 0 0 0 0 0 0 0 0 0 0 0 0 0 0 0 0 0 0.25 0"/>
<feBlend mode="normal" in2="BackgroundImageFix" result="effect1_dropShadow_539_7"/>
<feBlend mode="normal" in="SourceGraphic" in2="effect1_dropShadow_539_7" result="shape"/>
</filter>
<filter id="filter6_d_539_7" x="616" y="298" width="272.5" height="230" filterUnits="userSpaceOnUse" color-interpolation-filters="sRGB">
<feFlood flood-opacity="0" result="BackgroundImageFix"/>
<feColorMatrix in="SourceAlpha" type="matrix" values="0 0 0 0 0 0 0 0 0 0 0 0 0 0 0 0 0 0 127 0" result="hardAlpha"/>
<feOffset dy="4"/>
<feGaussianBlur stdDeviation="2"/>
<feComposite in2="hardAlpha" operator="out"/>
<feColorMatrix type="matrix" values="0 0 0 0 0 0 0 0 0 0 0 0 0 0 0 0 0 0 0.25 0"/>
<feBlend mode="normal" in2="BackgroundImageFix" result="effect1_dropShadow_539_7"/>
<feBlend mode="normal" in="SourceGraphic" in2="effect1_dropShadow_539_7" result="shape"/>
</filter>
<filter id="filter7_d_539_7" x="334" y="191" width="253.5" height="278" filterUnits="userSpaceOnUse" color-interpolation-filters="sRGB">
<feFlood flood-opacity="0" result="BackgroundImageFix"/>
<feColorMatrix in="SourceAlpha" type="matrix" values="0 0 0 0 0 0 0 0 0 0 0 0 0 0 0 0 0 0 127 0" result="hardAlpha"/>
<feOffset dy="4"/>
<feGaussianBlur stdDeviation="2"/>
<feComposite in2="hardAlpha" operator="out"/>
<feColorMatrix type="matrix" values="0 0 0 0 0 0 0 0 0 0 0 0 0 0 0 0 0 0 0.25 0"/>
<feBlend mode="normal" in2="BackgroundImageFix" result="effect1_dropShadow_539_7"/>
<feBlend mode="normal" in="SourceGraphic" in2="effect1_dropShadow_539_7" result="shape"/>
</filter>
<filter id="filter8_d_539_7" x="378" y="712.2" width="50.8" height="59.6" filterUnits="userSpaceOnUse" color-interpolation-filters="sRGB">
<feFlood flood-opacity="0" result="BackgroundImageFix"/>
<feColorMatrix in="SourceAlpha" type="matrix" values="0 0 0 0 0 0 0 0 0 0 0 0 0 0 0 0 0 0 127 0" result="hardAlpha"/>
<feOffset dx="2"/>
<feGaussianBlur stdDeviation="0.9"/>
<feComposite in2="hardAlpha" operator="out"/>
<feColorMatrix type="matrix" values="0 0 0 0 0 0 0 0 0 0 0 0 0 0 0 0 0 0 0.25 0"/>
<feBlend mode="normal" in2="BackgroundImageFix" result="effect1_dropShadow_539_7"/>
<feBlend mode="normal" in="SourceGraphic" in2="effect1_dropShadow_539_7" result="shape"/>
</filter>
<filter id="filter9_d_539_7" x="331" y="768.2" width="50.8" height="59.6" filterUnits="userSpaceOnUse" color-interpolation-filters="sRGB">
<feFlood flood-opacity="0" result="BackgroundImageFix"/>
<feColorMatrix in="SourceAlpha" type="matrix" values="0 0 0 0 0 0 0 0 0 0 0 0 0 0 0 0 0 0 127 0" result="hardAlpha"/>
<feOffset dx="2"/>
<feGaussianBlur stdDeviation="0.9"/>
<feComposite in2="hardAlpha" operator="out"/>
<feColorMatrix type="matrix" values="0 0 0 0 0 0 0 0 0 0 0 0 0 0 0 0 0 0 0.25 0"/>
<feBlend mode="normal" in2="BackgroundImageFix" result="effect1_dropShadow_539_7"/>
<feBlend mode="normal" in="SourceGraphic" in2="effect1_dropShadow_539_7" result="shape"/>
</filter>
<filter id="filter10_d_539_7" x="348" y="787.2" width="47.3" height="40.6" filterUnits="userSpaceOnUse" color-interpolation-filters="sRGB">
<feFlood flood-opacity="0" result="BackgroundImageFix"/>
<feColorMatrix in="SourceAlpha" type="matrix" values="0 0 0 0 0 0 0 0 0 0 0 0 0 0 0 0 0 0 127 0" result="hardAlpha"/>
<feOffset dx="2"/>
<feGaussianBlur stdDeviation="0.9"/>
<feComposite in2="hardAlpha" operator="out"/>
<feColorMatrix type="matrix" values="0 0 0 0 0 0 0 0 0 0 0 0 0 0 0 0 0 0 0.25 0"/>
<feBlend mode="normal" in2="BackgroundImageFix" result="effect1_dropShadow_539_7"/>
<feBlend mode="normal" in="SourceGraphic" in2="effect1_dropShadow_539_7" result="shape"/>
</filter>
<filter id="filter11_d_539_7" x="250.5" y="860.2" width="65.3" height="47.6" filterUnits="userSpaceOnUse" color-interpolation-filters="sRGB">
<feFlood flood-opacity="0" result="BackgroundImageFix"/>
<feColorMatrix in="SourceAlpha" type="matrix" values="0 0 0 0 0 0 0 0 0 0 0 0 0 0 0 0 0 0 127 0" result="hardAlpha"/>
<feOffset dx="2"/>
<feGaussianBlur stdDeviation="0.9"/>
<feComposite in2="hardAlpha" operator="out"/>
<feColorMatrix type="matrix" values="0 0 0 0 0 0 0 0 0 0 0 0 0 0 0 0 0 0 0.25 0"/>
<feBlend mode="normal" in2="BackgroundImageFix" result="effect1_dropShadow_539_7"/>
<feBlend mode="normal" in="SourceGraphic" in2="effect1_dropShadow_539_7" result="shape"/>
</filter>
<filter id="filter12_d_539_7" x="144" y="784.2" width="50.8" height="59.6" filterUnits="userSpaceOnUse" color-interpolation-filters="sRGB">
<feFlood flood-opacity="0" result="BackgroundImageFix"/>
<feColorMatrix in="SourceAlpha" type="matrix" values="0 0 0 0 0 0 0 0 0 0 0 0 0 0 0 0 0 0 127 0" result="hardAlpha"/>
<feOffset dx="2"/>
<feGaussianBlur stdDeviation="0.9"/>
<feComposite in2="hardAlpha" operator="out"/>
<feColorMatrix type="matrix" values="0 0 0 0 0 0 0 0 0 0 0 0 0 0 0 0 0 0 0.25 0"/>
<feBlend mode="normal" in2="BackgroundImageFix" result="effect1_dropShadow_539_7"/>
<feBlend mode="normal" in="SourceGraphic" in2="effect1_dropShadow_539_7" result="shape"/>
</filter>
<filter id="filter13_d_539_7" x="172" y="768.2" width="50.8" height="35.6" filterUnits="userSpaceOnUse" color-interpolation-filters="sRGB">
<feFlood flood-opacity="0" result="BackgroundImageFix"/>
<feColorMatrix in="SourceAlpha" type="matrix" values="0 0 0 0 0 0 0 0 0 0 0 0 0 0 0 0 0 0 127 0" result="hardAlpha"/>
<feOffset dx="2"/>
<feGaussianBlur stdDeviation="0.9"/>
<feComposite in2="hardAlpha" operator="out"/>
<feColorMatrix type="matrix" values="0 0 0 0 0 0 0 0 0 0 0 0 0 0 0 0 0 0 0.25 0"/>
<feBlend mode="normal" in2="BackgroundImageFix" result="effect1_dropShadow_539_7"/>
<feBlend mode="normal" in="SourceGraphic" in2="effect1_dropShadow_539_7" result="shape"/>
</filter>
<filter id="filter14_d_539_7" x="427.25" y="871.113" width="52.2585" height="35.7631" filterUnits="userSpaceOnUse" color-interpolation-filters="sRGB">
<feFlood flood-opacity="0" result="BackgroundImageFix"/>
<feColorMatrix in="SourceAlpha" type="matrix" values="0 0 0 0 0 0 0 0 0 0 0 0 0 0 0 0 0 0 127 0" result="hardAlpha"/>
<feOffset dx="4" dy="-1"/>
<feGaussianBlur stdDeviation="1.4"/>
<feComposite in2="hardAlpha" operator="out"/>
<feColorMatrix type="matrix" values="0 0 0 0 0 0 0 0 0 0 0 0 0 0 0 0 0 0 0.25 0"/>
<feBlend mode="normal" in2="BackgroundImageFix" result="effect1_dropShadow_539_7"/>
<feBlend mode="normal" in="SourceGraphic" in2="effect1_dropShadow_539_7" result="shape"/>
</filter>
<filter id="filter15_d_539_7" x="402.907" y="856.502" width="63.3537" height="54.5595" filterUnits="userSpaceOnUse" color-interpolation-filters="sRGB">
<feFlood flood-opacity="0" result="BackgroundImageFix"/>
<feColorMatrix in="SourceAlpha" type="matrix" values="0 0 0 0 0 0 0 0 0 0 0 0 0 0 0 0 0 0 127 0" result="hardAlpha"/>
<feOffset dx="2"/>
<feGaussianBlur stdDeviation="0.9"/>
<feComposite in2="hardAlpha" operator="out"/>
<feColorMatrix type="matrix" values="0 0 0 0 0 0 0 0 0 0 0 0 0 0 0 0 0 0 0.25 0"/>
<feBlend mode="normal" in2="BackgroundImageFix" result="effect1_dropShadow_539_7"/>
<feBlend mode="normal" in="SourceGraphic" in2="effect1_dropShadow_539_7" result="shape"/>
</filter>
<filter id="filter16_d_539_7" x="463" y="684.2" width="50.8" height="59.6" filterUnits="userSpaceOnUse" color-interpolation-filters="sRGB">
<feFlood flood-opacity="0" result="BackgroundImageFix"/>
<feColorMatrix in="SourceAlpha" type="matrix" values="0 0 0 0 0 0 0 0 0 0 0 0 0 0 0 0 0 0 127 0" result="hardAlpha"/>
<feOffset dx="2"/>
<feGaussianBlur stdDeviation="0.9"/>
<feComposite in2="hardAlpha" operator="out"/>
<feColorMatrix type="matrix" values="0 0 0 0 0 0 0 0 0 0 0 0 0 0 0 0 0 0 0.25 0"/>
<feBlend mode="normal" in2="BackgroundImageFix" result="effect1_dropShadow_539_7"/>
<feBlend mode="normal" in="SourceGraphic" in2="effect1_dropShadow_539_7" result="shape"/>
</filter>
<filter id="filter17_d_539_7" x="623" y="743.2" width="50.8" height="59.6" filterUnits="userSpaceOnUse" color-interpolation-filters="sRGB">
<feFlood flood-opacity="0" result="BackgroundImageFix"/>
<feColorMatrix in="SourceAlpha" type="matrix" values="0 0 0 0 0 0 0 0 0 0 0 0 0 0 0 0 0 0 127 0" result="hardAlpha"/>
<feOffset dx="2"/>
<feGaussianBlur stdDeviation="0.9"/>
<feComposite in2="hardAlpha" operator="out"/>
<feColorMatrix type="matrix" values="0 0 0 0 0 0 0 0 0 0 0 0 0 0 0 0 0 0 0.25 0"/>
<feBlend mode="normal" in2="BackgroundImageFix" result="effect1_dropShadow_539_7"/>
<feBlend mode="normal" in="SourceGraphic" in2="effect1_dropShadow_539_7" result="shape"/>
</filter>
<filter id="filter18_d_539_7" x="708" y="858.7" width="67.8" height="70.6" filterUnits="userSpaceOnUse" color-interpolation-filters="sRGB">
<feFlood flood-opacity="0" result="BackgroundImageFix"/>
<feColorMatrix in="SourceAlpha" type="matrix" values="0 0 0 0 0 0 0 0 0 0 0 0 0 0 0 0 0 0 127 0" result="hardAlpha"/>
<feOffset dx="2"/>
<feGaussianBlur stdDeviation="0.9"/>
<feComposite in2="hardAlpha" operator="out"/>
<feColorMatrix type="matrix" values="0 0 0 0 0 0 0 0 0 0 0 0 0 0 0 0 0 0 0.25 0"/>
<feBlend mode="normal" in2="BackgroundImageFix" result="effect1_dropShadow_539_7"/>
<feBlend mode="normal" in="SourceGraphic" in2="effect1_dropShadow_539_7" result="shape"/>
</filter>
<filter id="filter19_d_539_7" x="596" y="710.2" width="52.8" height="33.6" filterUnits="userSpaceOnUse" color-interpolation-filters="sRGB">
<feFlood flood-opacity="0" result="BackgroundImageFix"/>
<feColorMatrix in="SourceAlpha" type="matrix" values="0 0 0 0 0 0 0 0 0 0 0 0 0 0 0 0 0 0 127 0" result="hardAlpha"/>
<feOffset dx="4" dy="-1"/>
<feGaussianBlur stdDeviation="1.4"/>
<feComposite in2="hardAlpha" operator="out"/>
<feColorMatrix type="matrix" values="0 0 0 0 0 0 0 0 0 0 0 0 0 0 0 0 0 0 0.25 0"/>
<feBlend mode="normal" in2="BackgroundImageFix" result="effect1_dropShadow_539_7"/>
<feBlend mode="normal" in="SourceGraphic" in2="effect1_dropShadow_539_7" result="shape"/>
</filter>
<filter id="filter20_d_539_7" x="611" y="710.2" width="52.8" height="33.6" filterUnits="userSpaceOnUse" color-interpolation-filters="sRGB">
<feFlood flood-opacity="0" result="BackgroundImageFix"/>
<feColorMatrix in="SourceAlpha" type="matrix" values="0 0 0 0 0 0 0 0 0 0 0 0 0 0 0 0 0 0 127 0" result="hardAlpha"/>
<feOffset dx="4" dy="-1"/>
<feGaussianBlur stdDeviation="1.4"/>
<feComposite in2="hardAlpha" operator="out"/>
<feColorMatrix type="matrix" values="0 0 0 0 0 0 0 0 0 0 0 0 0 0 0 0 0 0 0.25 0"/>
<feBlend mode="normal" in2="BackgroundImageFix" result="effect1_dropShadow_539_7"/>
<feBlend mode="normal" in="SourceGraphic" in2="effect1_dropShadow_539_7" result="shape"/>
</filter>
<filter id="filter21_d_539_7" x="584" y="717.2" width="52.8" height="33.6" filterUnits="userSpaceOnUse" color-interpolation-filters="sRGB">
<feFlood flood-opacity="0" result="BackgroundImageFix"/>
<feColorMatrix in="SourceAlpha" type="matrix" values="0 0 0 0 0 0 0 0 0 0 0 0 0 0 0 0 0 0 127 0" result="hardAlpha"/>
<feOffset dx="4" dy="-1"/>
<feGaussianBlur stdDeviation="1.4"/>
<feComposite in2="hardAlpha" operator="out"/>
<feColorMatrix type="matrix" values="0 0 0 0 0 0 0 0 0 0 0 0 0 0 0 0 0 0 0.25 0"/>
<feBlend mode="normal" in2="BackgroundImageFix" result="effect1_dropShadow_539_7"/>
<feBlend mode="normal" in="SourceGraphic" in2="effect1_dropShadow_539_7" result="shape"/>
</filter>
<filter id="filter22_d_539_7" x="638" y="769.2" width="52.8" height="33.6" filterUnits="userSpaceOnUse" color-interpolation-filters="sRGB">
<feFlood flood-opacity="0" result="BackgroundImageFix"/>
<feColorMatrix in="SourceAlpha" type="matrix" values="0 0 0 0 0 0 0 0 0 0 0 0 0 0 0 0 0 0 127 0" result="hardAlpha"/>
<feOffset dx="4" dy="-1"/>
<feGaussianBlur stdDeviation="1.4"/>
<feComposite in2="hardAlpha" operator="out"/>
<feColorMatrix type="matrix" values="0 0 0 0 0 0 0 0 0 0 0 0 0 0 0 0 0 0 0.25 0"/>
<feBlend mode="normal" in2="BackgroundImageFix" result="effect1_dropShadow_539_7"/>
<feBlend mode="normal" in="SourceGraphic" in2="effect1_dropShadow_539_7" result="shape"/>
</filter>
<filter id="filter23_d_539_7" x="611" y="776.2" width="52.8" height="33.6" filterUnits="userSpaceOnUse" color-interpolation-filters="sRGB">
<feFlood flood-opacity="0" result="BackgroundImageFix"/>
<feColorMatrix in="SourceAlpha" type="matrix" values="0 0 0 0 0 0 0 0 0 0 0 0 0 0 0 0 0 0 127 0" result="hardAlpha"/>
<feOffset dx="4" dy="-1"/>
<feGaussianBlur stdDeviation="1.4"/>
<feComposite in2="hardAlpha" operator="out"/>
<feColorMatrix type="matrix" values="0 0 0 0 0 0 0 0 0 0 0 0 0 0 0 0 0 0 0.25 0"/>
<feBlend mode="normal" in2="BackgroundImageFix" result="effect1_dropShadow_539_7"/>
<feBlend mode="normal" in="SourceGraphic" in2="effect1_dropShadow_539_7" result="shape"/>
</filter>
<filter id="filter24_d_539_7" x="647" y="779.2" width="52.8" height="33.6" filterUnits="userSpaceOnUse" color-interpolation-filters="sRGB">
<feFlood flood-opacity="0" result="BackgroundImageFix"/>
<feColorMatrix in="SourceAlpha" type="matrix" values="0 0 0 0 0 0 0 0 0 0 0 0 0 0 0 0 0 0 127 0" result="hardAlpha"/>
<feOffset dx="4" dy="-1"/>
<feGaussianBlur stdDeviation="1.4"/>
<feComposite in2="hardAlpha" operator="out"/>
<feColorMatrix type="matrix" values="0 0 0 0 0 0 0 0 0 0 0 0 0 0 0 0 0 0 0.25 0"/>
<feBlend mode="normal" in2="BackgroundImageFix" result="effect1_dropShadow_539_7"/>
<feBlend mode="normal" in="SourceGraphic" in2="effect1_dropShadow_539_7" result="shape"/>
</filter>
<filter id="filter25_d_539_7" x="620" y="786.2" width="52.8" height="33.6" filterUnits="userSpaceOnUse" color-interpolation-filters="sRGB">
<feFlood flood-opacity="0" result="BackgroundImageFix"/>
<feColorMatrix in="SourceAlpha" type="matrix" values="0 0 0 0 0 0 0 0 0 0 0 0 0 0 0 0 0 0 127 0" result="hardAlpha"/>
<feOffset dx="4" dy="-1"/>
<feGaussianBlur stdDeviation="1.4"/>
<feComposite in2="hardAlpha" operator="out"/>
<feColorMatrix type="matrix" values="0 0 0 0 0 0 0 0 0 0 0 0 0 0 0 0 0 0 0.25 0"/>
<feBlend mode="normal" in2="BackgroundImageFix" result="effect1_dropShadow_539_7"/>
<feBlend mode="normal" in="SourceGraphic" in2="effect1_dropShadow_539_7" result="shape"/>
</filter>
<filter id="filter26_d_539_7" x="723.675" y="889.879" width="54.5192" height="38.622" filterUnits="userSpaceOnUse" color-interpolation-filters="sRGB">
<feFlood flood-opacity="0" result="BackgroundImageFix"/>
<feColorMatrix in="SourceAlpha" type="matrix" values="0 0 0 0 0 0 0 0 0 0 0 0 0 0 0 0 0 0 127 0" result="hardAlpha"/>
<feOffset dx="4" dy="-1"/>
<feGaussianBlur stdDeviation="1.4"/>
<feComposite in2="hardAlpha" operator="out"/>
<feColorMatrix type="matrix" values="0 0 0 0 0 0 0 0 0 0 0 0 0 0 0 0 0 0 0.25 0"/>
<feBlend mode="normal" in2="BackgroundImageFix" result="effect1_dropShadow_539_7"/>
<feBlend mode="normal" in="SourceGraphic" in2="effect1_dropShadow_539_7" result="shape"/>
</filter>
<filter id="filter27_d_539_7" x="696.675" y="896.879" width="54.5192" height="38.622" filterUnits="userSpaceOnUse" color-interpolation-filters="sRGB">
<feFlood flood-opacity="0" result="BackgroundImageFix"/>
<feColorMatrix in="SourceAlpha" type="matrix" values="0 0 0 0 0 0 0 0 0 0 0 0 0 0 0 0 0 0 127 0" result="hardAlpha"/>
<feOffset dx="4" dy="-1"/>
<feGaussianBlur stdDeviation="1.4"/>
<feComposite in2="hardAlpha" operator="out"/>
<feColorMatrix type="matrix" values="0 0 0 0 0 0 0 0 0 0 0 0 0 0 0 0 0 0 0.25 0"/>
<feBlend mode="normal" in2="BackgroundImageFix" result="effect1_dropShadow_539_7"/>
<feBlend mode="normal" in="SourceGraphic" in2="effect1_dropShadow_539_7" result="shape"/>
</filter>
<filter id="filter28_d_539_7" x="711" y="719.7" width="52.8" height="38.1" filterUnits="userSpaceOnUse" color-interpolation-filters="sRGB">
<feFlood flood-opacity="0" result="BackgroundImageFix"/>
<feColorMatrix in="SourceAlpha" type="matrix" values="0 0 0 0 0 0 0 0 0 0 0 0 0 0 0 0 0 0 127 0" result="hardAlpha"/>
<feOffset dx="4" dy="-1"/>
<feGaussianBlur stdDeviation="1.4"/>
<feComposite in2="hardAlpha" operator="out"/>
<feColorMatrix type="matrix" values="0 0 0 0 0 0 0 0 0 0 0 0 0 0 0 0 0 0 0.25 0"/>
<feBlend mode="normal" in2="BackgroundImageFix" result="effect1_dropShadow_539_7"/>
<feBlend mode="normal" in="SourceGraphic" in2="effect1_dropShadow_539_7" result="shape"/>
</filter>
<filter id="filter29_d_539_7" x="734" y="725.7" width="52.8" height="39.1" filterUnits="userSpaceOnUse" color-interpolation-filters="sRGB">
<feFlood flood-opacity="0" result="BackgroundImageFix"/>
<feColorMatrix in="SourceAlpha" type="matrix" values="0 0 0 0 0 0 0 0 0 0 0 0 0 0 0 0 0 0 127 0" result="hardAlpha"/>
<feOffset dx="4" dy="-1"/>
<feGaussianBlur stdDeviation="1.4"/>
<feComposite in2="hardAlpha" operator="out"/>
<feColorMatrix type="matrix" values="0 0 0 0 0 0 0 0 0 0 0 0 0 0 0 0 0 0 0.25 0"/>
<feBlend mode="normal" in2="BackgroundImageFix" result="effect1_dropShadow_539_7"/>
<feBlend mode="normal" in="SourceGraphic" in2="effect1_dropShadow_539_7" result="shape"/>
</filter>
<filter id="filter30_d_539_7" x="449" y="710.2" width="52.8" height="33.6" filterUnits="userSpaceOnUse" color-interpolation-filters="sRGB">
<feFlood flood-opacity="0" result="BackgroundImageFix"/>
<feColorMatrix in="SourceAlpha" type="matrix" values="0 0 0 0 0 0 0 0 0 0 0 0 0 0 0 0 0 0 127 0" result="hardAlpha"/>
<feOffset dx="4" dy="-1"/>
<feGaussianBlur stdDeviation="1.4"/>
<feComposite in2="hardAlpha" operator="out"/>
<feColorMatrix type="matrix" values="0 0 0 0 0 0 0 0 0 0 0 0 0 0 0 0 0 0 0.25 0"/>
<feBlend mode="normal" in2="BackgroundImageFix" result="effect1_dropShadow_539_7"/>
<feBlend mode="normal" in="SourceGraphic" in2="effect1_dropShadow_539_7" result="shape"/>
</filter>
<filter id="filter31_d_539_7" x="139.009" y="818.852" width="65.7131" height="32.8871" filterUnits="userSpaceOnUse" color-interpolation-filters="sRGB">
<feFlood flood-opacity="0" result="BackgroundImageFix"/>
<feColorMatrix in="SourceAlpha" type="matrix" values="0 0 0 0 0 0 0 0 0 0 0 0 0 0 0 0 0 0 127 0" result="hardAlpha"/>
<feOffset dx="4" dy="-1"/>
<feGaussianBlur stdDeviation="1.4"/>
<feComposite in2="hardAlpha" operator="out"/>
<feColorMatrix type="matrix" values="0 0 0 0 0 0 0 0 0 0 0 0 0 0 0 0 0 0 0.25 0"/>
<feBlend mode="normal" in2="BackgroundImageFix" result="effect1_dropShadow_539_7"/>
<feBlend mode="normal" in="SourceGraphic" in2="effect1_dropShadow_539_7" result="shape"/>
</filter>
<filter id="filter32_d_539_7" x="241.009" y="881.852" width="65.7131" height="32.8871" filterUnits="userSpaceOnUse" color-interpolation-filters="sRGB">
<feFlood flood-opacity="0" result="BackgroundImageFix"/>
<feColorMatrix in="SourceAlpha" type="matrix" values="0 0 0 0 0 0 0 0 0 0 0 0 0 0 0 0 0 0 127 0" result="hardAlpha"/>
<feOffset dx="4" dy="-1"/>
<feGaussianBlur stdDeviation="1.4"/>
<feComposite in2="hardAlpha" operator="out"/>
<feColorMatrix type="matrix" values="0 0 0 0 0 0 0 0 0 0 0 0 0 0 0 0 0 0 0.25 0"/>
<feBlend mode="normal" in2="BackgroundImageFix" result="effect1_dropShadow_539_7"/>
<feBlend mode="normal" in="SourceGraphic" in2="effect1_dropShadow_539_7" result="shape"/>
</filter>
<filter id="filter33_d_539_7" x="192" y="775.2" width="52.8" height="33.6" filterUnits="userSpaceOnUse" color-interpolation-filters="sRGB">
<feFlood flood-opacity="0" result="BackgroundImageFix"/>
<feColorMatrix in="SourceAlpha" type="matrix" values="0 0 0 0 0 0 0 0 0 0 0 0 0 0 0 0 0 0 127 0" result="hardAlpha"/>
<feOffset dx="4" dy="-1"/>
<feGaussianBlur stdDeviation="1.4"/>
<feComposite in2="hardAlpha" operator="out"/>
<feColorMatrix type="matrix" values="0 0 0 0 0 0 0 0 0 0 0 0 0 0 0 0 0 0 0.25 0"/>
<feBlend mode="normal" in2="BackgroundImageFix" result="effect1_dropShadow_539_7"/>
<feBlend mode="normal" in="SourceGraphic" in2="effect1_dropShadow_539_7" result="shape"/>
</filter>
<clipPath id="clip0_539_7">
<rect width="943" height="1117" fill="white"/>
</clipPath>
</defs>
</svg>
