<svg width="1085" height="1235" viewBox="0 0 1085 1235" fill="none" xmlns="http://www.w3.org/2000/svg">
<path d="M939.5 1017.5L682.5 1168.5L170 1234.5L116 1140.5L87.5 1026.5L32 863L155 781L315 732L425 714.5L557 722.5L746.5 750.5L993.5 781L1001.5 874.5L939.5 1017.5Z" fill="#55C306"/>
<path d="M904 903L993 782L752 749L555.5 724H489L427.5 713L310.5 733L243.5 755.5L157.5 782L32 865.5L103.5 989L337.5 976L444 919.5H604L730.5 943.5L904 903Z" fill="#B9E40F" fill-opacity="0.28"/>
<path d="M456 597.5L533.5 700.5L604.5 714.5L681.5 743.5L715 762L655.5 743.5L591.5 730L539.5 726.5L520 730L539.5 757L565.5 805.5L531 851.5L549.5 805.5L506 757L469 730H402L279 768L350 730L433 707L402 582L350 548L338.5 471L362.5 537.5L416.5 565.5L506 491.5L423 471L375 394L381 370V394L433 462.5L514.5 478L506 456L522.5 419L549.5 370L531 419L522.5 456L531 471L641 427L681.5 402L648.5 434.5L531 485.5L456 597.5Z" fill="#493F39"/>
<path d="M719 337L568.5 455.5L422 424L296.5 321.5L310 184.5L422 27L595 67.5L682 147.5L719 337Z" fill="#AC0E0E"/>
<path d="M790 481L584.5 455L485.5 344L550.5 203L711 171L857.5 240L917 344L790 481Z" fill="#B65300"/>
<path d="M569 439.135L411.219 500L322.561 464.907L288 366.755L322.561 260.378L423.241 171L532.936 278.473L569 439.135Z" fill="#DB7207"/>
<path d="M465 451.5L400 520H266L200.5 451.5L279 298L383.5 334L465 451.5Z" fill="#D7D80D"/>
<path d="M747 355L679 461H574L501.5 427.5V290.5L591.5 191L668.5 219L747 355Z" fill="#D4A206"/>
<path d="M891.5 717L887 797.5H874.5V714L891.5 717Z" fill="#D6A36E"/>
<path d="M842.5 726.767L920.5 716.767L936 699.5L924 685L842.5 672.5V726.767Z" fill="#D6A36E"/>
<path style="mix-blend-mode:lighten" d="M852 725L848 674L842.5 672.5V726.5L852 725Z" fill="#66CE70" fill-opacity="0.42"/>
<path style="mix-blend-mode:lighten" d="M882 797.5L877.5 722H874.5V797.5H882Z" fill="#68D273" fill-opacity="0.78"/>
<path d="M707 732.182L691.457 770H672.583L660 755.455L677.024 761.636L672.583 747.455L679.984 755.455L677.024 714L682.575 747.455L691.457 738.727L687.386 759.091L707 732.182Z" fill="#55C306"/>
<path d="M754 788.182L738.457 826H719.583L707 811.455L724.024 817.636L719.583 803.455L726.984 811.455L724.024 770L729.575 803.455L738.457 794.727L734.386 815.091L754 788.182Z" fill="#55C306"/>
<path d="M737 811.455L732.457 826H713.583L693.5 797L718.024 817.636L713.583 803.455L720.5 813L726 789V803.455L735.5 802L728.386 815.091L737 811.455Z" fill="#55C306"/>
<path d="M834.5 869.5L829.173 906H802.669L773 894.571L808.906 899.429L796 887L813.063 894.571L808.906 862L818.5 892L823.457 872V897.429L834.5 869.5Z" fill="#55C306"/>
<path d="M941 804.182L925.457 842H906.583L894 827.455L911.024 833.636L906.583 819.455L913.984 827.455L911.024 786L916.575 819.455L925.457 810.727L921.386 831.091L941 804.182Z" fill="#55C306"/>
<path d="M913 780.39L897.457 802H878.583L866 793.688L883.024 797.221L878.583 789.117L885.984 793.688L883.024 770L888.575 789.117L897.457 784.13L893.386 795.766L913 780.39Z" fill="#55C306"/>
<path d="M657.75 893.085L646.887 905.075L623.866 900.82L612.292 883.731L631.356 895.169L612.8 876.469L636.571 891.604L637.508 878.197L642.219 891.999L654.764 874.913L646.887 896.255L657.75 893.085Z" fill="#55C306"/>
<path d="M669.038 909.261L682.093 873.084L666.062 894.472L658.176 884.443L657.063 858.302L652.274 876.937L639.826 861.106L651.216 881.053L648.09 893.216L637.004 879.956L644.706 899.176L622.539 878.944L637.2 898.651L634.18 906L669.038 909.261Z" fill="#55C306"/>
<path d="M622 704.182L606.457 742H587.583L575 727.455L592.024 733.636L587.583 719.455L594.984 727.455L592.024 686L597.575 719.455L606.457 710.727L602.386 731.091L622 704.182Z" fill="#55C306"/>
<path d="M462 763.182L446.457 801H427.583L415 786.455L432.024 792.636L427.583 778.455L434.984 786.455L432.024 745L437.575 778.455L446.457 769.727L442.386 790.091L462 763.182Z" fill="#55C306"/>
<path d="M377 878L363.742 918.937L334 927.5L331 916.5L313 898.5L331 909.005L342 914L323 884L345.215 907L347.978 860.5L350.722 898.5L361.5 886.5L357.665 909.005L377 878Z" fill="#55C306"/>
<path d="M489 731.92L478.385 742H455.738L443 725.76L462.815 735.84L443 718.48L467.769 731.92V718.48L473.431 731.92L484.754 714L478.385 735.84L489 731.92Z" fill="#25DE42"/>
<path d="M474 731.92L463.385 742H440.738L428 725.76L447.815 735.84L428 718.48L452.769 731.92V718.48L458.431 731.92L469.754 714L463.385 735.84L474 731.92Z" fill="#55C306"/>
<path d="M501 738.92L490.385 749H467.738L455 732.76L474.815 742.84L455 725.48L479.769 738.92V725.48L485.431 738.92L496.754 721L490.385 742.84L501 738.92Z" fill="#55C306"/>
<path d="M447 790.92L436.385 801H413.738L401 784.76L420.815 794.84L401 777.48L425.769 790.92V777.48L431.431 790.92L442.754 773L436.385 794.84L447 790.92Z" fill="#55C306"/>
<path d="M474 797.92L463.385 808H440.738L428 791.76L447.815 801.84L428 784.48L452.769 797.92V784.48L458.431 797.92L469.754 780L463.385 801.84L474 797.92Z" fill="#55C306"/>
<path d="M438 800.92L427.385 811H404.738L392 794.76L411.815 804.84L392 787.48L416.769 800.92V787.48L422.431 800.92L433.754 783L427.385 804.84L438 800.92Z" fill="#55C306"/>
<path d="M465 807.92L454.385 818H431.738L419 801.76L438.815 811.84L419 794.48L443.769 807.92V794.48L449.431 807.92L460.754 790L454.385 811.84L465 807.92Z" fill="#55C306"/>
<path d="M361.325 910.46L352.828 922.38L330.598 926.701L314.995 913.19L336.369 919.304L313.606 906.044L340.484 914.511L337.92 901.318L346.042 913.431L353.738 893.679L351.653 916.333L361.325 910.46Z" fill="#55C306"/>
<path d="M388.325 917.46L379.828 929.38L357.598 933.701L341.995 920.19L363.369 926.304L340.606 913.044L367.484 921.511L364.92 908.318L373.042 920.431L380.738 900.679L378.653 923.333L388.325 917.46Z" fill="#55C306"/>
<path d="M363.385 756L374 745.92L363.385 749.84L361.628 740.499L369 728L360.949 736.889L358.431 723.5V739.669L352.769 745.92L344.5 732.5L347.815 749.84L328 739.76L340.738 756H363.385Z" fill="#55C306"/>
<path d="M351 752.92L340.385 763H317.738L305 746.76L324.815 756.84V738.5L329.769 752.92L335.431 729.5V752.92L345.5 746.76L340.385 756.84L351 752.92Z" fill="#55C306"/>
<path d="M636 731.92L625.385 742H602.738L590 725.76L609.815 735.84L590 718.48L614.769 731.92V718.48L620.431 731.92L631.754 714L625.385 735.84L636 731.92Z" fill="#55C306"/>
<path d="M945.991 836.61L933.715 846.46L905.374 849.94L887.806 838.656L913.614 843.83L887.078 832.721L919.421 839.873L918.076 828.915L926.506 839.003L938.883 822.652L933.098 841.437L945.991 836.61Z" fill="#55C306"/>
<path d="M843.991 899.61L831.715 909.46L803.374 912.94L785.806 901.656L811.614 906.83L785.078 895.721L817.421 902.873L816.076 891.915L824.506 902.003L836.883 885.652L831.098 904.437L843.991 899.61Z" fill="#55C306"/>
<path d="M893 796.92L882.385 807H859.738L847 790.76L866.815 800.84L847 783.48L871.769 796.92V783.48L877.431 796.92L888.754 779L882.385 800.84L893 796.92Z" fill="#55C306"/>
<path style="mix-blend-mode:darken" d="M916.5 981L1001.5 874L939 1017.5L779 1111.5L752.5 1127.5L683 1167.5L488.5 1194L170 1234.5L115 1136.5L84.5 1017L64 960.5L115 1034L170 1149L333 1127.5L426.5 1053L611.5 1037L699.5 1070.5L856 1008.5L916.5 981Z" fill="#2B628A" fill-opacity="0.36"/>
</svg>
