<svg width="943" height="1235" viewBox="0 0 943 1235" fill="none" xmlns="http://www.w3.org/2000/svg">
<g clip-path="url(#clip0_567_133)">
<g filter="url(#filter0_d_567_133)">
<path d="M145.5 1017.5L402.5 1168.5L915 1234.5L930 781L770 732L660 714.5L528 722.5L338.5 750.5L91.5 781L83.5 874.5L145.5 1017.5Z" fill="#55C306"/>
</g>
<g filter="url(#filter1_d_567_133)">
<path d="M181 903L92 782L333 749L529.5 724H596L657.5 713L774.5 733L841.5 755.5L927.5 782L921.5 976H747.5L641 919.5H481L354.5 943.5L181 903Z" fill="#B9E40F" fill-opacity="0.28" shape-rendering="crispEdges"/>
</g>
<g filter="url(#filter2_d_567_133)">
<path d="M629 597.5L551.5 700.5L480.5 714.5L403.5 743.5L370 762L429.5 743.5L493.5 730L545.5 726.5L565 730L545.5 757L519.5 805.5L554 851.5L535.5 805.5L579 757L616 730H683L806 768L735 730L652 707L683 582L735 548L746.5 471L722.5 537.5L668.5 565.5L579 491.5L662 471L710 394L704 370V394L652 462.5L570.5 478L579 456L562.5 419L535.5 370L554 419L562.5 456L554 471L444 427L403.5 402L436.5 434.5L554 485.5L629 597.5Z" fill="#493F39"/>
</g>
<g filter="url(#filter3_d_567_133)">
<path d="M366 337L516.5 455.5L663 424L788.5 321.5L775 184.5L663 27L490 67.5L403 147.5L366 337Z" fill="#AC0E0E"/>
</g>
<g filter="url(#filter4_d_567_133)">
<path d="M295 481L500.5 455L599.5 344L534.5 203L374 171L227.5 240L168 344L295 481Z" fill="#B65300"/>
</g>
<g filter="url(#filter5_d_567_133)">
<path d="M516 439.135L673.781 500L762.439 464.907L797 366.755L762.439 260.378L661.759 171L552.064 278.473L516 439.135Z" fill="#DB7207"/>
</g>
<g filter="url(#filter6_d_567_133)">
<path d="M620 451.5L685 520H819L884.5 451.5L806 298L701.5 334L620 451.5Z" fill="#D7D80D"/>
</g>
<g filter="url(#filter7_d_567_133)">
<path d="M338 355L406 461H511L583.5 427.5V290.5L493.5 191L416.5 219L338 355Z" fill="#D4A206"/>
</g>
<path d="M193.5 717L198 797.5H210.5V714L193.5 717Z" fill="#D6A36E"/>
<path d="M242.5 726.767L164.5 716.767L149 699.5L161 685L242.5 672.5V726.767Z" fill="#D6A36E"/>
<path style="mix-blend-mode:lighten" d="M233 725L237 674L242.5 672.5V726.5L233 725Z" fill="#66CE70" fill-opacity="0.42"/>
<path style="mix-blend-mode:lighten" d="M203 797.5L207.5 722H210.5V797.5H203Z" fill="#68D273" fill-opacity="0.78"/>
<g filter="url(#filter8_d_567_133)">
<path d="M378 732.182L393.543 770H412.417L425 755.455L407.976 761.636L412.417 747.455L405.016 755.455L407.976 714L402.425 747.455L393.543 738.727L397.614 759.091L378 732.182Z" fill="#55C306"/>
</g>
<g filter="url(#filter9_d_567_133)">
<path d="M331 788.182L346.543 826H365.417L378 811.455L360.976 817.636L365.417 803.455L358.016 811.455L360.976 770L355.425 803.455L346.543 794.727L350.614 815.091L331 788.182Z" fill="#55C306"/>
</g>
<g filter="url(#filter10_d_567_133)">
<path d="M348 811.455L352.543 826H371.417L391.5 797L366.976 817.636L371.417 803.455L364.5 813L359 789V803.455L349.5 802L356.614 815.091L348 811.455Z" fill="#55C306"/>
</g>
<g filter="url(#filter11_d_567_133)">
<path d="M250.5 869.5L255.827 906H282.331L312 894.571L276.094 899.429L289 887L271.937 894.571L276.094 862L266.5 892L261.543 872V897.429L250.5 869.5Z" fill="#55C306"/>
</g>
<g filter="url(#filter12_d_567_133)">
<path d="M144 804.182L159.543 842H178.417L191 827.455L173.976 833.636L178.417 819.455L171.016 827.455L173.976 786L168.425 819.455L159.543 810.727L163.614 831.091L144 804.182Z" fill="#55C306"/>
</g>
<g filter="url(#filter13_d_567_133)">
<path d="M172 780.39L187.543 802H206.417L219 793.688L201.976 797.221L206.417 789.117L199.016 793.688L201.976 770L196.425 789.117L187.543 784.13L191.614 795.766L172 780.39Z" fill="#55C306"/>
</g>
<g filter="url(#filter14_d_567_133)">
<path d="M427.25 893.085L438.113 905.076L461.134 900.821L472.708 883.732L453.644 895.169L472.2 876.469L448.429 891.604L447.492 878.197L442.781 891.999L430.236 874.913L438.113 896.255L427.25 893.085Z" fill="#55C306"/>
</g>
<g filter="url(#filter15_d_567_133)">
<path d="M415.962 909.261L402.907 873.084L418.938 894.472L426.824 884.443L427.937 858.302L432.726 876.937L445.174 861.106L433.784 881.053L436.91 893.216L447.996 879.956L440.294 899.176L462.461 878.944L447.8 898.651L450.82 906L415.962 909.261Z" fill="#55C306"/>
</g>
<g filter="url(#filter16_d_567_133)">
<path d="M463 704.182L478.543 742H497.417L510 727.455L492.976 733.636L497.417 719.455L490.016 727.455L492.976 686L487.425 719.455L478.543 710.727L482.614 731.091L463 704.182Z" fill="#55C306"/>
</g>
<g filter="url(#filter17_d_567_133)">
<path d="M623 763.182L638.543 801H657.417L670 786.455L652.976 792.636L657.417 778.455L650.016 786.455L652.976 745L647.425 778.455L638.543 769.727L642.614 790.091L623 763.182Z" fill="#55C306"/>
</g>
<g filter="url(#filter18_d_567_133)">
<path d="M708 878L721.258 918.937L751 927.5L754 916.5L772 898.5L754 909.005L743 914L762 884L739.785 907L737.022 860.5L734.278 898.5L723.5 886.5L727.335 909.005L708 878Z" fill="#55C306"/>
</g>
<g filter="url(#filter19_d_567_133)">
<path d="M596 731.92L606.615 742H629.262L642 725.76L622.185 735.84L642 718.48L617.231 731.92V718.48L611.569 731.92L600.246 714L606.615 735.84L596 731.92Z" fill="#25DE42"/>
</g>
<g filter="url(#filter20_d_567_133)">
<path d="M611 731.92L621.615 742H644.262L657 725.76L637.185 735.84L657 718.48L632.231 731.92V718.48L626.569 731.92L615.246 714L621.615 735.84L611 731.92Z" fill="#55C306"/>
</g>
<g filter="url(#filter21_d_567_133)">
<path d="M584 738.92L594.615 749H617.262L630 732.76L610.185 742.84L630 725.48L605.231 738.92V725.48L599.569 738.92L588.246 721L594.615 742.84L584 738.92Z" fill="#55C306"/>
</g>
<g filter="url(#filter22_d_567_133)">
<path d="M638 790.92L648.615 801H671.262L684 784.76L664.185 794.84L684 777.48L659.231 790.92V777.48L653.569 790.92L642.246 773L648.615 794.84L638 790.92Z" fill="#55C306"/>
</g>
<g filter="url(#filter23_d_567_133)">
<path d="M611 797.92L621.615 808H644.262L657 791.76L637.185 801.84L657 784.48L632.231 797.92V784.48L626.569 797.92L615.246 780L621.615 801.84L611 797.92Z" fill="#55C306"/>
</g>
<g filter="url(#filter24_d_567_133)">
<path d="M647 800.92L657.615 811H680.262L693 794.76L673.185 804.84L693 787.48L668.231 800.92V787.48L662.569 800.92L651.246 783L657.615 804.84L647 800.92Z" fill="#55C306"/>
</g>
<g filter="url(#filter25_d_567_133)">
<path d="M620 807.92L630.615 818H653.262L666 801.76L646.185 811.84L666 794.48L641.231 807.92V794.48L635.569 807.92L624.246 790L630.615 811.84L620 807.92Z" fill="#55C306"/>
</g>
<g filter="url(#filter26_d_567_133)">
<path d="M723.675 910.46L732.172 922.38L754.402 926.701L770.005 913.19L748.631 919.304L771.394 906.044L744.516 914.511L747.08 901.318L738.958 913.431L731.262 893.679L733.347 916.333L723.675 910.46Z" fill="#55C306"/>
</g>
<g filter="url(#filter27_d_567_133)">
<path d="M696.675 917.46L705.172 929.38L727.402 933.701L743.005 920.19L721.631 926.304L744.394 913.044L717.516 921.511L720.08 908.318L711.958 920.431L704.262 900.679L706.347 923.333L696.675 917.46Z" fill="#55C306"/>
</g>
<g filter="url(#filter28_d_567_133)">
<path d="M721.615 756L711 745.92L721.615 749.84L723.372 740.499L716 728L724.051 736.889L726.569 723.5V739.669L732.231 745.92L740.5 732.5L737.185 749.84L757 739.76L744.262 756H721.615Z" fill="#55C306"/>
</g>
<g filter="url(#filter29_d_567_133)">
<path d="M734 752.92L744.615 763H767.262L780 746.76L760.185 756.84V738.5L755.231 752.92L749.569 729.5V752.92L739.5 746.76L744.615 756.84L734 752.92Z" fill="#55C306"/>
</g>
<g filter="url(#filter30_d_567_133)">
<path d="M449 731.92L459.615 742H482.262L495 725.76L475.185 735.84L495 718.48L470.231 731.92V718.48L464.569 731.92L453.246 714L459.615 735.84L449 731.92Z" fill="#55C306"/>
</g>
<g filter="url(#filter31_d_567_133)">
<path d="M139.009 836.61L151.285 846.46L179.626 849.94L197.194 838.656L171.386 843.83L197.922 832.721L165.579 839.873L166.924 828.915L158.494 839.003L146.117 822.652L151.902 841.437L139.009 836.61Z" fill="#55C306"/>
</g>
<g filter="url(#filter32_d_567_133)">
<path d="M241.009 899.61L253.285 909.46L281.626 912.94L299.194 901.656L273.386 906.83L299.922 895.721L267.579 902.873L268.924 891.915L260.494 902.003L248.117 885.652L253.902 904.437L241.009 899.61Z" fill="#55C306"/>
</g>
<g filter="url(#filter33_d_567_133)">
<path d="M192 796.92L202.615 807H225.262L238 790.76L218.185 800.84L238 783.48L213.231 796.92V783.48L207.569 796.92L196.246 779L202.615 800.84L192 796.92Z" fill="#55C306"/>
</g>
<path style="mix-blend-mode:darken" d="M178.5 992.5L83.5 874.5L146 1017.5L306 1111.5L332.5 1127.5L402 1167.5L596.5 1194L915 1234.5L918.5 1124.5L798.5 1136.5L575.5 1044L332.5 1058.5L178.5 992.5Z" fill="#2B628A" fill-opacity="0.36"/>
<path d="M172.845 695.292C172.846 695.344 172.845 695.428 172.842 695.543C172.838 695.652 172.837 695.733 172.838 695.785C172.844 696.134 172.866 696.503 172.904 696.893C172.942 697.283 172.999 697.712 173.075 698.179L172.304 698.326C172.207 697.551 171.866 696.956 171.281 696.539C170.695 696.117 169.929 695.914 168.981 695.93C167.773 695.951 166.842 696.345 166.188 697.112C165.54 697.873 165.228 698.942 165.252 700.316C165.278 701.8 165.674 702.976 166.439 703.843C167.209 704.71 168.225 705.132 169.485 705.11C170.276 705.097 170.948 704.905 171.499 704.536C172.055 704.167 172.501 703.612 172.837 702.872L173.53 703.18C173.329 703.595 173.154 704.002 173.004 704.4C172.855 704.794 172.729 705.184 172.626 705.571C172 705.837 171.387 706.041 170.785 706.182C170.188 706.327 169.612 706.405 169.054 706.415C167.242 706.447 165.764 705.936 164.621 704.883C163.477 703.83 162.89 702.439 162.86 700.71C162.83 699.002 163.394 697.585 164.552 696.461C165.715 695.331 167.202 694.75 169.014 694.719C169.665 694.707 170.304 694.748 170.931 694.841C171.563 694.935 172.201 695.085 172.845 695.292ZM178.473 698.999C177.833 699.011 177.34 699.259 176.994 699.744C176.653 700.224 176.49 700.899 176.506 701.769C176.524 702.826 176.739 703.661 177.151 704.273C177.563 704.886 178.107 705.186 178.784 705.175C179.43 705.163 179.933 704.905 180.294 704.398C180.661 703.892 180.836 703.204 180.821 702.334C180.803 701.298 180.58 700.481 180.153 699.884C179.731 699.282 179.171 698.987 178.473 698.999ZM178.612 697.973C179.835 697.952 180.844 698.312 181.639 699.054C182.433 699.79 182.84 700.733 182.86 701.884C182.881 703.092 182.49 704.11 181.687 704.936C180.888 705.758 179.88 706.179 178.661 706.2C177.443 706.222 176.442 705.859 175.658 705.112C174.874 704.365 174.471 703.398 174.451 702.211C174.43 701.044 174.824 700.053 175.633 699.237C176.447 698.415 177.44 697.994 178.612 697.973ZM186.719 697.816L186.617 699.1C187.234 698.641 187.762 698.306 188.201 698.095C188.64 697.884 189.032 697.776 189.375 697.77C190.193 697.756 190.812 697.984 191.231 698.456C191.656 698.923 191.877 699.622 191.893 700.555C191.896 700.732 191.898 701.143 191.899 701.789C191.9 702.43 191.904 702.984 191.912 703.453C191.926 704.219 191.988 704.679 192.101 704.833C192.218 704.987 192.446 705.061 192.784 705.055L192.948 705.052L192.944 705.709C192.48 705.686 192.084 705.669 191.756 705.659C191.427 705.649 191.162 705.646 190.958 705.65C190.74 705.654 190.469 705.666 190.146 705.687C189.829 705.709 189.46 705.738 189.038 705.777L189.027 705.121L189.121 705.119C189.766 705.108 190.086 704.451 190.079 703.149C190.078 703.107 190.077 703.076 190.077 703.055L190.048 701.407C190.033 700.506 189.918 699.901 189.704 699.593C189.49 699.284 189.133 699.134 188.634 699.142C188.363 699.147 188.072 699.21 187.762 699.33C187.451 699.444 187.11 699.622 186.74 699.863C186.727 700.332 186.72 700.819 186.718 701.325C186.717 701.83 186.721 702.372 186.731 702.95L186.742 703.59C186.754 704.293 186.817 704.73 186.929 704.9C187.047 705.069 187.272 705.152 187.605 705.146L187.73 705.144L187.742 705.8C187.304 705.776 186.921 705.759 186.592 705.749C186.264 705.74 185.985 705.737 185.756 705.741C185.532 705.744 185.256 705.757 184.928 705.778C184.601 705.8 184.221 705.83 183.789 705.869L183.778 705.213L183.957 705.209C184.603 705.198 184.92 704.539 184.907 703.232C184.905 703.075 184.905 702.956 184.909 702.872L184.896 701.255L184.884 700.567C184.874 699.979 184.821 699.6 184.724 699.429C184.632 699.254 184.464 699.168 184.219 699.173C184.172 699.173 184.068 699.183 183.907 699.202C183.876 699.207 183.853 699.21 183.837 699.211L183.78 698.602C184.211 698.527 184.665 698.425 185.142 698.297C185.619 698.169 186.145 698.009 186.719 697.816ZM196.303 695.137L197.08 695.343C197.051 695.672 197.024 695.986 197 696.285C196.982 696.578 196.972 696.857 196.971 697.121C197.738 697.107 198.309 697.091 198.684 697.073C199.059 697.055 199.404 697.031 199.72 697.002L199.512 698.21C199.143 698.187 198.744 698.174 198.316 698.17C197.894 698.159 197.452 698.161 196.989 698.175C196.985 698.949 196.982 699.611 196.98 700.162C196.983 700.707 196.988 701.135 196.993 701.445C197.016 702.728 197.121 703.564 197.31 703.954C197.504 704.337 197.835 704.525 198.304 704.516C198.491 704.513 198.705 704.471 198.944 704.391C199.182 704.311 199.453 704.189 199.755 704.025L200.11 704.757C199.472 705.132 198.903 705.417 198.402 705.614C197.902 705.816 197.488 705.92 197.159 705.925C196.41 705.938 195.852 705.714 195.486 705.251C195.121 704.783 194.929 704.054 194.912 703.064C194.909 702.87 194.912 702.235 194.923 701.156C194.939 700.077 194.939 699.093 194.924 698.202C194.912 698.203 194.772 698.211 194.502 698.227C194.239 698.244 193.929 698.261 193.571 698.279L193.557 697.435C194.234 697.324 194.799 697.079 195.249 696.702C195.705 696.319 196.057 695.798 196.303 695.137ZM206.054 701.287C205.925 701.324 205.739 701.38 205.494 701.455C203.826 701.947 202.998 702.509 203.009 703.142C203.015 703.494 203.135 703.788 203.367 704.024C203.6 704.254 203.889 704.366 204.235 704.36C204.457 704.356 204.708 704.296 204.988 704.18C205.273 704.064 205.641 703.867 206.094 703.589L206.054 701.287ZM209.607 703.924L209.944 704.586C209.417 704.947 208.941 705.219 208.516 705.402C208.097 705.579 207.721 705.671 207.387 705.677C206.983 705.684 206.671 705.586 206.45 705.385C206.236 705.178 206.107 704.864 206.065 704.443C205.434 704.899 204.9 705.231 204.465 705.437C204.029 705.638 203.635 705.742 203.283 705.748C202.668 705.759 202.14 705.531 201.698 705.064C201.256 704.591 201.029 704.021 201.018 703.353C200.998 702.228 202.24 701.354 204.743 700.73C205.285 700.591 205.711 700.481 206.02 700.4C206.024 700.253 206.024 700.113 206.022 699.978C206.025 699.837 206.026 699.702 206.024 699.573C206.013 698.947 205.882 698.492 205.631 698.209C205.385 697.926 204.996 697.789 204.463 697.799C204.117 697.805 203.82 697.88 203.57 698.025C203.327 698.17 203.198 698.336 203.184 698.524C203.178 698.554 203.176 698.592 203.177 698.639C203.152 699.225 202.788 699.524 202.085 699.537C201.821 699.541 201.618 699.501 201.476 699.415C201.334 699.33 201.262 699.202 201.259 699.032C201.25 698.564 201.672 698.032 202.523 697.437C203.38 696.836 204.283 696.527 205.232 696.511C206.157 696.494 206.865 696.725 207.354 697.203C207.842 697.675 208.095 698.377 208.111 699.308C208.116 699.59 208.103 700.173 208.071 701.058C208.046 701.938 208.038 702.679 208.049 703.283C208.055 703.64 208.106 703.897 208.203 704.054C208.299 704.21 208.447 704.287 208.646 704.283C208.758 704.281 208.895 704.25 209.058 704.188C209.221 704.127 209.404 704.039 209.607 703.924ZM217.673 703.247L218.172 704.099C217.524 704.597 216.904 704.974 216.31 705.231C215.717 705.481 215.151 705.611 214.612 705.621C213.405 705.642 212.408 705.246 211.62 704.434C210.838 703.621 210.436 702.564 210.413 701.264C210.389 699.899 210.85 698.742 211.794 697.794C212.739 696.845 213.926 696.359 215.355 696.334C216.158 696.32 216.766 696.429 217.181 696.662C217.601 696.89 217.815 697.234 217.823 697.697C217.827 697.961 217.735 698.2 217.545 698.414C217.356 698.628 217.138 698.738 216.892 698.742C216.681 698.746 216.344 698.57 215.88 698.215C215.417 697.854 214.986 697.676 214.588 697.683C213.972 697.694 213.485 697.958 213.125 698.474C212.77 698.99 212.601 699.678 212.616 700.54C212.635 701.641 212.902 702.501 213.417 703.119C213.937 703.737 214.64 704.038 215.525 704.023C215.859 704.017 216.2 703.949 216.55 703.82C216.905 703.691 217.279 703.5 217.673 703.247ZM221.559 694.696L222.336 694.902C222.307 695.231 222.28 695.545 222.256 695.844C222.238 696.138 222.228 696.416 222.227 696.68C222.994 696.666 223.565 696.651 223.94 696.632C224.315 696.614 224.66 696.59 224.976 696.562L224.768 697.769C224.399 697.747 224 697.733 223.572 697.729C223.15 697.719 222.708 697.72 222.245 697.734C222.241 698.508 222.238 699.17 222.236 699.721C222.239 700.266 222.244 700.694 222.249 701.004C222.272 702.287 222.377 703.123 222.566 703.513C222.76 703.896 223.091 704.084 223.56 704.076C223.747 704.072 223.961 704.031 224.199 703.95C224.438 703.87 224.709 703.748 225.011 703.584L225.366 704.317C224.728 704.691 224.159 704.976 223.658 705.173C223.158 705.375 222.743 705.479 222.415 705.485C221.666 705.498 221.108 705.273 220.742 704.81C220.377 704.342 220.185 703.613 220.168 702.623C220.164 702.43 220.168 701.794 220.179 700.715C220.195 699.637 220.195 698.652 220.18 697.762C220.168 697.762 220.027 697.77 219.758 697.787C219.495 697.803 219.184 697.82 218.827 697.838L218.813 696.994C219.49 696.883 220.055 696.639 220.505 696.262C220.961 695.879 221.313 695.357 221.559 694.696Z" fill="white"/>
</g>
<defs>
<filter id="filter0_d_567_133" x="79.5" y="714.5" width="854.5" height="528" filterUnits="userSpaceOnUse" color-interpolation-filters="sRGB">
<feFlood flood-opacity="0" result="BackgroundImageFix"/>
<feColorMatrix in="SourceAlpha" type="matrix" values="0 0 0 0 0 0 0 0 0 0 0 0 0 0 0 0 0 0 127 0" result="hardAlpha"/>
<feOffset dy="4"/>
<feGaussianBlur stdDeviation="2"/>
<feComposite in2="hardAlpha" operator="out"/>
<feColorMatrix type="matrix" values="0 0 0 0 0 0 0 0 0 0 0 0 0 0 0 0 0 0 0.25 0"/>
<feBlend mode="normal" in2="BackgroundImageFix" result="effect1_dropShadow_567_133"/>
<feBlend mode="normal" in="SourceGraphic" in2="effect1_dropShadow_567_133" result="shape"/>
</filter>
<filter id="filter1_d_567_133" x="88" y="713" width="843.5" height="271" filterUnits="userSpaceOnUse" color-interpolation-filters="sRGB">
<feFlood flood-opacity="0" result="BackgroundImageFix"/>
<feColorMatrix in="SourceAlpha" type="matrix" values="0 0 0 0 0 0 0 0 0 0 0 0 0 0 0 0 0 0 127 0" result="hardAlpha"/>
<feOffset dy="4"/>
<feGaussianBlur stdDeviation="2"/>
<feComposite in2="hardAlpha" operator="out"/>
<feColorMatrix type="matrix" values="0 0 0 0 0 0 0 0 0 0 0 0 0 0 0 0 0 0 0.25 0"/>
<feBlend mode="normal" in2="BackgroundImageFix" result="effect1_dropShadow_567_133"/>
<feBlend mode="normal" in="SourceGraphic" in2="effect1_dropShadow_567_133" result="shape"/>
</filter>
<filter id="filter2_d_567_133" x="366" y="370" width="444" height="489.5" filterUnits="userSpaceOnUse" color-interpolation-filters="sRGB">
<feFlood flood-opacity="0" result="BackgroundImageFix"/>
<feColorMatrix in="SourceAlpha" type="matrix" values="0 0 0 0 0 0 0 0 0 0 0 0 0 0 0 0 0 0 127 0" result="hardAlpha"/>
<feOffset dy="4"/>
<feGaussianBlur stdDeviation="2"/>
<feComposite in2="hardAlpha" operator="out"/>
<feColorMatrix type="matrix" values="0 0 0 0 0 0 0 0 0 0 0 0 0 0 0 0 0 0 0.25 0"/>
<feBlend mode="normal" in2="BackgroundImageFix" result="effect1_dropShadow_567_133"/>
<feBlend mode="normal" in="SourceGraphic" in2="effect1_dropShadow_567_133" result="shape"/>
</filter>
<filter id="filter3_d_567_133" x="362" y="27" width="430.5" height="436.5" filterUnits="userSpaceOnUse" color-interpolation-filters="sRGB">
<feFlood flood-opacity="0" result="BackgroundImageFix"/>
<feColorMatrix in="SourceAlpha" type="matrix" values="0 0 0 0 0 0 0 0 0 0 0 0 0 0 0 0 0 0 127 0" result="hardAlpha"/>
<feOffset dy="4"/>
<feGaussianBlur stdDeviation="2"/>
<feComposite in2="hardAlpha" operator="out"/>
<feColorMatrix type="matrix" values="0 0 0 0 0 0 0 0 0 0 0 0 0 0 0 0 0 0 0.25 0"/>
<feBlend mode="normal" in2="BackgroundImageFix" result="effect1_dropShadow_567_133"/>
<feBlend mode="normal" in="SourceGraphic" in2="effect1_dropShadow_567_133" result="shape"/>
</filter>
<filter id="filter4_d_567_133" x="164" y="171" width="439.5" height="318" filterUnits="userSpaceOnUse" color-interpolation-filters="sRGB">
<feFlood flood-opacity="0" result="BackgroundImageFix"/>
<feColorMatrix in="SourceAlpha" type="matrix" values="0 0 0 0 0 0 0 0 0 0 0 0 0 0 0 0 0 0 127 0" result="hardAlpha"/>
<feOffset dy="4"/>
<feGaussianBlur stdDeviation="2"/>
<feComposite in2="hardAlpha" operator="out"/>
<feColorMatrix type="matrix" values="0 0 0 0 0 0 0 0 0 0 0 0 0 0 0 0 0 0 0.25 0"/>
<feBlend mode="normal" in2="BackgroundImageFix" result="effect1_dropShadow_567_133"/>
<feBlend mode="normal" in="SourceGraphic" in2="effect1_dropShadow_567_133" result="shape"/>
</filter>
<filter id="filter5_d_567_133" x="512" y="171" width="289" height="337" filterUnits="userSpaceOnUse" color-interpolation-filters="sRGB">
<feFlood flood-opacity="0" result="BackgroundImageFix"/>
<feColorMatrix in="SourceAlpha" type="matrix" values="0 0 0 0 0 0 0 0 0 0 0 0 0 0 0 0 0 0 127 0" result="hardAlpha"/>
<feOffset dy="4"/>
<feGaussianBlur stdDeviation="2"/>
<feComposite in2="hardAlpha" operator="out"/>
<feColorMatrix type="matrix" values="0 0 0 0 0 0 0 0 0 0 0 0 0 0 0 0 0 0 0.25 0"/>
<feBlend mode="normal" in2="BackgroundImageFix" result="effect1_dropShadow_567_133"/>
<feBlend mode="normal" in="SourceGraphic" in2="effect1_dropShadow_567_133" result="shape"/>
</filter>
<filter id="filter6_d_567_133" x="616" y="298" width="272.5" height="230" filterUnits="userSpaceOnUse" color-interpolation-filters="sRGB">
<feFlood flood-opacity="0" result="BackgroundImageFix"/>
<feColorMatrix in="SourceAlpha" type="matrix" values="0 0 0 0 0 0 0 0 0 0 0 0 0 0 0 0 0 0 127 0" result="hardAlpha"/>
<feOffset dy="4"/>
<feGaussianBlur stdDeviation="2"/>
<feComposite in2="hardAlpha" operator="out"/>
<feColorMatrix type="matrix" values="0 0 0 0 0 0 0 0 0 0 0 0 0 0 0 0 0 0 0.25 0"/>
<feBlend mode="normal" in2="BackgroundImageFix" result="effect1_dropShadow_567_133"/>
<feBlend mode="normal" in="SourceGraphic" in2="effect1_dropShadow_567_133" result="shape"/>
</filter>
<filter id="filter7_d_567_133" x="334" y="191" width="253.5" height="278" filterUnits="userSpaceOnUse" color-interpolation-filters="sRGB">
<feFlood flood-opacity="0" result="BackgroundImageFix"/>
<feColorMatrix in="SourceAlpha" type="matrix" values="0 0 0 0 0 0 0 0 0 0 0 0 0 0 0 0 0 0 127 0" result="hardAlpha"/>
<feOffset dy="4"/>
<feGaussianBlur stdDeviation="2"/>
<feComposite in2="hardAlpha" operator="out"/>
<feColorMatrix type="matrix" values="0 0 0 0 0 0 0 0 0 0 0 0 0 0 0 0 0 0 0.25 0"/>
<feBlend mode="normal" in2="BackgroundImageFix" result="effect1_dropShadow_567_133"/>
<feBlend mode="normal" in="SourceGraphic" in2="effect1_dropShadow_567_133" result="shape"/>
</filter>
<filter id="filter8_d_567_133" x="378" y="712.2" width="50.8" height="59.6" filterUnits="userSpaceOnUse" color-interpolation-filters="sRGB">
<feFlood flood-opacity="0" result="BackgroundImageFix"/>
<feColorMatrix in="SourceAlpha" type="matrix" values="0 0 0 0 0 0 0 0 0 0 0 0 0 0 0 0 0 0 127 0" result="hardAlpha"/>
<feOffset dx="2"/>
<feGaussianBlur stdDeviation="0.9"/>
<feComposite in2="hardAlpha" operator="out"/>
<feColorMatrix type="matrix" values="0 0 0 0 0 0 0 0 0 0 0 0 0 0 0 0 0 0 0.25 0"/>
<feBlend mode="normal" in2="BackgroundImageFix" result="effect1_dropShadow_567_133"/>
<feBlend mode="normal" in="SourceGraphic" in2="effect1_dropShadow_567_133" result="shape"/>
</filter>
<filter id="filter9_d_567_133" x="331" y="768.2" width="50.8" height="59.6" filterUnits="userSpaceOnUse" color-interpolation-filters="sRGB">
<feFlood flood-opacity="0" result="BackgroundImageFix"/>
<feColorMatrix in="SourceAlpha" type="matrix" values="0 0 0 0 0 0 0 0 0 0 0 0 0 0 0 0 0 0 127 0" result="hardAlpha"/>
<feOffset dx="2"/>
<feGaussianBlur stdDeviation="0.9"/>
<feComposite in2="hardAlpha" operator="out"/>
<feColorMatrix type="matrix" values="0 0 0 0 0 0 0 0 0 0 0 0 0 0 0 0 0 0 0.25 0"/>
<feBlend mode="normal" in2="BackgroundImageFix" result="effect1_dropShadow_567_133"/>
<feBlend mode="normal" in="SourceGraphic" in2="effect1_dropShadow_567_133" result="shape"/>
</filter>
<filter id="filter10_d_567_133" x="348" y="787.2" width="47.3" height="40.6" filterUnits="userSpaceOnUse" color-interpolation-filters="sRGB">
<feFlood flood-opacity="0" result="BackgroundImageFix"/>
<feColorMatrix in="SourceAlpha" type="matrix" values="0 0 0 0 0 0 0 0 0 0 0 0 0 0 0 0 0 0 127 0" result="hardAlpha"/>
<feOffset dx="2"/>
<feGaussianBlur stdDeviation="0.9"/>
<feComposite in2="hardAlpha" operator="out"/>
<feColorMatrix type="matrix" values="0 0 0 0 0 0 0 0 0 0 0 0 0 0 0 0 0 0 0.25 0"/>
<feBlend mode="normal" in2="BackgroundImageFix" result="effect1_dropShadow_567_133"/>
<feBlend mode="normal" in="SourceGraphic" in2="effect1_dropShadow_567_133" result="shape"/>
</filter>
<filter id="filter11_d_567_133" x="250.5" y="860.2" width="65.3" height="47.6" filterUnits="userSpaceOnUse" color-interpolation-filters="sRGB">
<feFlood flood-opacity="0" result="BackgroundImageFix"/>
<feColorMatrix in="SourceAlpha" type="matrix" values="0 0 0 0 0 0 0 0 0 0 0 0 0 0 0 0 0 0 127 0" result="hardAlpha"/>
<feOffset dx="2"/>
<feGaussianBlur stdDeviation="0.9"/>
<feComposite in2="hardAlpha" operator="out"/>
<feColorMatrix type="matrix" values="0 0 0 0 0 0 0 0 0 0 0 0 0 0 0 0 0 0 0.25 0"/>
<feBlend mode="normal" in2="BackgroundImageFix" result="effect1_dropShadow_567_133"/>
<feBlend mode="normal" in="SourceGraphic" in2="effect1_dropShadow_567_133" result="shape"/>
</filter>
<filter id="filter12_d_567_133" x="144" y="784.2" width="50.8" height="59.6" filterUnits="userSpaceOnUse" color-interpolation-filters="sRGB">
<feFlood flood-opacity="0" result="BackgroundImageFix"/>
<feColorMatrix in="SourceAlpha" type="matrix" values="0 0 0 0 0 0 0 0 0 0 0 0 0 0 0 0 0 0 127 0" result="hardAlpha"/>
<feOffset dx="2"/>
<feGaussianBlur stdDeviation="0.9"/>
<feComposite in2="hardAlpha" operator="out"/>
<feColorMatrix type="matrix" values="0 0 0 0 0 0 0 0 0 0 0 0 0 0 0 0 0 0 0.25 0"/>
<feBlend mode="normal" in2="BackgroundImageFix" result="effect1_dropShadow_567_133"/>
<feBlend mode="normal" in="SourceGraphic" in2="effect1_dropShadow_567_133" result="shape"/>
</filter>
<filter id="filter13_d_567_133" x="172" y="768.2" width="50.8" height="35.6" filterUnits="userSpaceOnUse" color-interpolation-filters="sRGB">
<feFlood flood-opacity="0" result="BackgroundImageFix"/>
<feColorMatrix in="SourceAlpha" type="matrix" values="0 0 0 0 0 0 0 0 0 0 0 0 0 0 0 0 0 0 127 0" result="hardAlpha"/>
<feOffset dx="2"/>
<feGaussianBlur stdDeviation="0.9"/>
<feComposite in2="hardAlpha" operator="out"/>
<feColorMatrix type="matrix" values="0 0 0 0 0 0 0 0 0 0 0 0 0 0 0 0 0 0 0.25 0"/>
<feBlend mode="normal" in2="BackgroundImageFix" result="effect1_dropShadow_567_133"/>
<feBlend mode="normal" in="SourceGraphic" in2="effect1_dropShadow_567_133" result="shape"/>
</filter>
<filter id="filter14_d_567_133" x="427.25" y="871.113" width="52.2585" height="35.7631" filterUnits="userSpaceOnUse" color-interpolation-filters="sRGB">
<feFlood flood-opacity="0" result="BackgroundImageFix"/>
<feColorMatrix in="SourceAlpha" type="matrix" values="0 0 0 0 0 0 0 0 0 0 0 0 0 0 0 0 0 0 127 0" result="hardAlpha"/>
<feOffset dx="4" dy="-1"/>
<feGaussianBlur stdDeviation="1.4"/>
<feComposite in2="hardAlpha" operator="out"/>
<feColorMatrix type="matrix" values="0 0 0 0 0 0 0 0 0 0 0 0 0 0 0 0 0 0 0.25 0"/>
<feBlend mode="normal" in2="BackgroundImageFix" result="effect1_dropShadow_567_133"/>
<feBlend mode="normal" in="SourceGraphic" in2="effect1_dropShadow_567_133" result="shape"/>
</filter>
<filter id="filter15_d_567_133" x="402.907" y="856.502" width="63.3537" height="54.5595" filterUnits="userSpaceOnUse" color-interpolation-filters="sRGB">
<feFlood flood-opacity="0" result="BackgroundImageFix"/>
<feColorMatrix in="SourceAlpha" type="matrix" values="0 0 0 0 0 0 0 0 0 0 0 0 0 0 0 0 0 0 127 0" result="hardAlpha"/>
<feOffset dx="2"/>
<feGaussianBlur stdDeviation="0.9"/>
<feComposite in2="hardAlpha" operator="out"/>
<feColorMatrix type="matrix" values="0 0 0 0 0 0 0 0 0 0 0 0 0 0 0 0 0 0 0.25 0"/>
<feBlend mode="normal" in2="BackgroundImageFix" result="effect1_dropShadow_567_133"/>
<feBlend mode="normal" in="SourceGraphic" in2="effect1_dropShadow_567_133" result="shape"/>
</filter>
<filter id="filter16_d_567_133" x="463" y="684.2" width="50.8" height="59.6" filterUnits="userSpaceOnUse" color-interpolation-filters="sRGB">
<feFlood flood-opacity="0" result="BackgroundImageFix"/>
<feColorMatrix in="SourceAlpha" type="matrix" values="0 0 0 0 0 0 0 0 0 0 0 0 0 0 0 0 0 0 127 0" result="hardAlpha"/>
<feOffset dx="2"/>
<feGaussianBlur stdDeviation="0.9"/>
<feComposite in2="hardAlpha" operator="out"/>
<feColorMatrix type="matrix" values="0 0 0 0 0 0 0 0 0 0 0 0 0 0 0 0 0 0 0.25 0"/>
<feBlend mode="normal" in2="BackgroundImageFix" result="effect1_dropShadow_567_133"/>
<feBlend mode="normal" in="SourceGraphic" in2="effect1_dropShadow_567_133" result="shape"/>
</filter>
<filter id="filter17_d_567_133" x="623" y="743.2" width="50.8" height="59.6" filterUnits="userSpaceOnUse" color-interpolation-filters="sRGB">
<feFlood flood-opacity="0" result="BackgroundImageFix"/>
<feColorMatrix in="SourceAlpha" type="matrix" values="0 0 0 0 0 0 0 0 0 0 0 0 0 0 0 0 0 0 127 0" result="hardAlpha"/>
<feOffset dx="2"/>
<feGaussianBlur stdDeviation="0.9"/>
<feComposite in2="hardAlpha" operator="out"/>
<feColorMatrix type="matrix" values="0 0 0 0 0 0 0 0 0 0 0 0 0 0 0 0 0 0 0.25 0"/>
<feBlend mode="normal" in2="BackgroundImageFix" result="effect1_dropShadow_567_133"/>
<feBlend mode="normal" in="SourceGraphic" in2="effect1_dropShadow_567_133" result="shape"/>
</filter>
<filter id="filter18_d_567_133" x="708" y="858.7" width="67.8" height="70.6" filterUnits="userSpaceOnUse" color-interpolation-filters="sRGB">
<feFlood flood-opacity="0" result="BackgroundImageFix"/>
<feColorMatrix in="SourceAlpha" type="matrix" values="0 0 0 0 0 0 0 0 0 0 0 0 0 0 0 0 0 0 127 0" result="hardAlpha"/>
<feOffset dx="2"/>
<feGaussianBlur stdDeviation="0.9"/>
<feComposite in2="hardAlpha" operator="out"/>
<feColorMatrix type="matrix" values="0 0 0 0 0 0 0 0 0 0 0 0 0 0 0 0 0 0 0.25 0"/>
<feBlend mode="normal" in2="BackgroundImageFix" result="effect1_dropShadow_567_133"/>
<feBlend mode="normal" in="SourceGraphic" in2="effect1_dropShadow_567_133" result="shape"/>
</filter>
<filter id="filter19_d_567_133" x="596" y="710.2" width="52.8" height="33.6" filterUnits="userSpaceOnUse" color-interpolation-filters="sRGB">
<feFlood flood-opacity="0" result="BackgroundImageFix"/>
<feColorMatrix in="SourceAlpha" type="matrix" values="0 0 0 0 0 0 0 0 0 0 0 0 0 0 0 0 0 0 127 0" result="hardAlpha"/>
<feOffset dx="4" dy="-1"/>
<feGaussianBlur stdDeviation="1.4"/>
<feComposite in2="hardAlpha" operator="out"/>
<feColorMatrix type="matrix" values="0 0 0 0 0 0 0 0 0 0 0 0 0 0 0 0 0 0 0.25 0"/>
<feBlend mode="normal" in2="BackgroundImageFix" result="effect1_dropShadow_567_133"/>
<feBlend mode="normal" in="SourceGraphic" in2="effect1_dropShadow_567_133" result="shape"/>
</filter>
<filter id="filter20_d_567_133" x="611" y="710.2" width="52.8" height="33.6" filterUnits="userSpaceOnUse" color-interpolation-filters="sRGB">
<feFlood flood-opacity="0" result="BackgroundImageFix"/>
<feColorMatrix in="SourceAlpha" type="matrix" values="0 0 0 0 0 0 0 0 0 0 0 0 0 0 0 0 0 0 127 0" result="hardAlpha"/>
<feOffset dx="4" dy="-1"/>
<feGaussianBlur stdDeviation="1.4"/>
<feComposite in2="hardAlpha" operator="out"/>
<feColorMatrix type="matrix" values="0 0 0 0 0 0 0 0 0 0 0 0 0 0 0 0 0 0 0.25 0"/>
<feBlend mode="normal" in2="BackgroundImageFix" result="effect1_dropShadow_567_133"/>
<feBlend mode="normal" in="SourceGraphic" in2="effect1_dropShadow_567_133" result="shape"/>
</filter>
<filter id="filter21_d_567_133" x="584" y="717.2" width="52.8" height="33.6" filterUnits="userSpaceOnUse" color-interpolation-filters="sRGB">
<feFlood flood-opacity="0" result="BackgroundImageFix"/>
<feColorMatrix in="SourceAlpha" type="matrix" values="0 0 0 0 0 0 0 0 0 0 0 0 0 0 0 0 0 0 127 0" result="hardAlpha"/>
<feOffset dx="4" dy="-1"/>
<feGaussianBlur stdDeviation="1.4"/>
<feComposite in2="hardAlpha" operator="out"/>
<feColorMatrix type="matrix" values="0 0 0 0 0 0 0 0 0 0 0 0 0 0 0 0 0 0 0.25 0"/>
<feBlend mode="normal" in2="BackgroundImageFix" result="effect1_dropShadow_567_133"/>
<feBlend mode="normal" in="SourceGraphic" in2="effect1_dropShadow_567_133" result="shape"/>
</filter>
<filter id="filter22_d_567_133" x="638" y="769.2" width="52.8" height="33.6" filterUnits="userSpaceOnUse" color-interpolation-filters="sRGB">
<feFlood flood-opacity="0" result="BackgroundImageFix"/>
<feColorMatrix in="SourceAlpha" type="matrix" values="0 0 0 0 0 0 0 0 0 0 0 0 0 0 0 0 0 0 127 0" result="hardAlpha"/>
<feOffset dx="4" dy="-1"/>
<feGaussianBlur stdDeviation="1.4"/>
<feComposite in2="hardAlpha" operator="out"/>
<feColorMatrix type="matrix" values="0 0 0 0 0 0 0 0 0 0 0 0 0 0 0 0 0 0 0.25 0"/>
<feBlend mode="normal" in2="BackgroundImageFix" result="effect1_dropShadow_567_133"/>
<feBlend mode="normal" in="SourceGraphic" in2="effect1_dropShadow_567_133" result="shape"/>
</filter>
<filter id="filter23_d_567_133" x="611" y="776.2" width="52.8" height="33.6" filterUnits="userSpaceOnUse" color-interpolation-filters="sRGB">
<feFlood flood-opacity="0" result="BackgroundImageFix"/>
<feColorMatrix in="SourceAlpha" type="matrix" values="0 0 0 0 0 0 0 0 0 0 0 0 0 0 0 0 0 0 127 0" result="hardAlpha"/>
<feOffset dx="4" dy="-1"/>
<feGaussianBlur stdDeviation="1.4"/>
<feComposite in2="hardAlpha" operator="out"/>
<feColorMatrix type="matrix" values="0 0 0 0 0 0 0 0 0 0 0 0 0 0 0 0 0 0 0.25 0"/>
<feBlend mode="normal" in2="BackgroundImageFix" result="effect1_dropShadow_567_133"/>
<feBlend mode="normal" in="SourceGraphic" in2="effect1_dropShadow_567_133" result="shape"/>
</filter>
<filter id="filter24_d_567_133" x="647" y="779.2" width="52.8" height="33.6" filterUnits="userSpaceOnUse" color-interpolation-filters="sRGB">
<feFlood flood-opacity="0" result="BackgroundImageFix"/>
<feColorMatrix in="SourceAlpha" type="matrix" values="0 0 0 0 0 0 0 0 0 0 0 0 0 0 0 0 0 0 127 0" result="hardAlpha"/>
<feOffset dx="4" dy="-1"/>
<feGaussianBlur stdDeviation="1.4"/>
<feComposite in2="hardAlpha" operator="out"/>
<feColorMatrix type="matrix" values="0 0 0 0 0 0 0 0 0 0 0 0 0 0 0 0 0 0 0.25 0"/>
<feBlend mode="normal" in2="BackgroundImageFix" result="effect1_dropShadow_567_133"/>
<feBlend mode="normal" in="SourceGraphic" in2="effect1_dropShadow_567_133" result="shape"/>
</filter>
<filter id="filter25_d_567_133" x="620" y="786.2" width="52.8" height="33.6" filterUnits="userSpaceOnUse" color-interpolation-filters="sRGB">
<feFlood flood-opacity="0" result="BackgroundImageFix"/>
<feColorMatrix in="SourceAlpha" type="matrix" values="0 0 0 0 0 0 0 0 0 0 0 0 0 0 0 0 0 0 127 0" result="hardAlpha"/>
<feOffset dx="4" dy="-1"/>
<feGaussianBlur stdDeviation="1.4"/>
<feComposite in2="hardAlpha" operator="out"/>
<feColorMatrix type="matrix" values="0 0 0 0 0 0 0 0 0 0 0 0 0 0 0 0 0 0 0.25 0"/>
<feBlend mode="normal" in2="BackgroundImageFix" result="effect1_dropShadow_567_133"/>
<feBlend mode="normal" in="SourceGraphic" in2="effect1_dropShadow_567_133" result="shape"/>
</filter>
<filter id="filter26_d_567_133" x="723.675" y="889.879" width="54.5192" height="38.622" filterUnits="userSpaceOnUse" color-interpolation-filters="sRGB">
<feFlood flood-opacity="0" result="BackgroundImageFix"/>
<feColorMatrix in="SourceAlpha" type="matrix" values="0 0 0 0 0 0 0 0 0 0 0 0 0 0 0 0 0 0 127 0" result="hardAlpha"/>
<feOffset dx="4" dy="-1"/>
<feGaussianBlur stdDeviation="1.4"/>
<feComposite in2="hardAlpha" operator="out"/>
<feColorMatrix type="matrix" values="0 0 0 0 0 0 0 0 0 0 0 0 0 0 0 0 0 0 0.25 0"/>
<feBlend mode="normal" in2="BackgroundImageFix" result="effect1_dropShadow_567_133"/>
<feBlend mode="normal" in="SourceGraphic" in2="effect1_dropShadow_567_133" result="shape"/>
</filter>
<filter id="filter27_d_567_133" x="696.675" y="896.879" width="54.5192" height="38.622" filterUnits="userSpaceOnUse" color-interpolation-filters="sRGB">
<feFlood flood-opacity="0" result="BackgroundImageFix"/>
<feColorMatrix in="SourceAlpha" type="matrix" values="0 0 0 0 0 0 0 0 0 0 0 0 0 0 0 0 0 0 127 0" result="hardAlpha"/>
<feOffset dx="4" dy="-1"/>
<feGaussianBlur stdDeviation="1.4"/>
<feComposite in2="hardAlpha" operator="out"/>
<feColorMatrix type="matrix" values="0 0 0 0 0 0 0 0 0 0 0 0 0 0 0 0 0 0 0.25 0"/>
<feBlend mode="normal" in2="BackgroundImageFix" result="effect1_dropShadow_567_133"/>
<feBlend mode="normal" in="SourceGraphic" in2="effect1_dropShadow_567_133" result="shape"/>
</filter>
<filter id="filter28_d_567_133" x="711" y="719.7" width="52.8" height="38.1" filterUnits="userSpaceOnUse" color-interpolation-filters="sRGB">
<feFlood flood-opacity="0" result="BackgroundImageFix"/>
<feColorMatrix in="SourceAlpha" type="matrix" values="0 0 0 0 0 0 0 0 0 0 0 0 0 0 0 0 0 0 127 0" result="hardAlpha"/>
<feOffset dx="4" dy="-1"/>
<feGaussianBlur stdDeviation="1.4"/>
<feComposite in2="hardAlpha" operator="out"/>
<feColorMatrix type="matrix" values="0 0 0 0 0 0 0 0 0 0 0 0 0 0 0 0 0 0 0.25 0"/>
<feBlend mode="normal" in2="BackgroundImageFix" result="effect1_dropShadow_567_133"/>
<feBlend mode="normal" in="SourceGraphic" in2="effect1_dropShadow_567_133" result="shape"/>
</filter>
<filter id="filter29_d_567_133" x="734" y="725.7" width="52.8" height="39.1" filterUnits="userSpaceOnUse" color-interpolation-filters="sRGB">
<feFlood flood-opacity="0" result="BackgroundImageFix"/>
<feColorMatrix in="SourceAlpha" type="matrix" values="0 0 0 0 0 0 0 0 0 0 0 0 0 0 0 0 0 0 127 0" result="hardAlpha"/>
<feOffset dx="4" dy="-1"/>
<feGaussianBlur stdDeviation="1.4"/>
<feComposite in2="hardAlpha" operator="out"/>
<feColorMatrix type="matrix" values="0 0 0 0 0 0 0 0 0 0 0 0 0 0 0 0 0 0 0.25 0"/>
<feBlend mode="normal" in2="BackgroundImageFix" result="effect1_dropShadow_567_133"/>
<feBlend mode="normal" in="SourceGraphic" in2="effect1_dropShadow_567_133" result="shape"/>
</filter>
<filter id="filter30_d_567_133" x="449" y="710.2" width="52.8" height="33.6" filterUnits="userSpaceOnUse" color-interpolation-filters="sRGB">
<feFlood flood-opacity="0" result="BackgroundImageFix"/>
<feColorMatrix in="SourceAlpha" type="matrix" values="0 0 0 0 0 0 0 0 0 0 0 0 0 0 0 0 0 0 127 0" result="hardAlpha"/>
<feOffset dx="4" dy="-1"/>
<feGaussianBlur stdDeviation="1.4"/>
<feComposite in2="hardAlpha" operator="out"/>
<feColorMatrix type="matrix" values="0 0 0 0 0 0 0 0 0 0 0 0 0 0 0 0 0 0 0.25 0"/>
<feBlend mode="normal" in2="BackgroundImageFix" result="effect1_dropShadow_567_133"/>
<feBlend mode="normal" in="SourceGraphic" in2="effect1_dropShadow_567_133" result="shape"/>
</filter>
<filter id="filter31_d_567_133" x="139.009" y="818.852" width="65.7131" height="32.8871" filterUnits="userSpaceOnUse" color-interpolation-filters="sRGB">
<feFlood flood-opacity="0" result="BackgroundImageFix"/>
<feColorMatrix in="SourceAlpha" type="matrix" values="0 0 0 0 0 0 0 0 0 0 0 0 0 0 0 0 0 0 127 0" result="hardAlpha"/>
<feOffset dx="4" dy="-1"/>
<feGaussianBlur stdDeviation="1.4"/>
<feComposite in2="hardAlpha" operator="out"/>
<feColorMatrix type="matrix" values="0 0 0 0 0 0 0 0 0 0 0 0 0 0 0 0 0 0 0.25 0"/>
<feBlend mode="normal" in2="BackgroundImageFix" result="effect1_dropShadow_567_133"/>
<feBlend mode="normal" in="SourceGraphic" in2="effect1_dropShadow_567_133" result="shape"/>
</filter>
<filter id="filter32_d_567_133" x="241.009" y="881.852" width="65.7131" height="32.8871" filterUnits="userSpaceOnUse" color-interpolation-filters="sRGB">
<feFlood flood-opacity="0" result="BackgroundImageFix"/>
<feColorMatrix in="SourceAlpha" type="matrix" values="0 0 0 0 0 0 0 0 0 0 0 0 0 0 0 0 0 0 127 0" result="hardAlpha"/>
<feOffset dx="4" dy="-1"/>
<feGaussianBlur stdDeviation="1.4"/>
<feComposite in2="hardAlpha" operator="out"/>
<feColorMatrix type="matrix" values="0 0 0 0 0 0 0 0 0 0 0 0 0 0 0 0 0 0 0.25 0"/>
<feBlend mode="normal" in2="BackgroundImageFix" result="effect1_dropShadow_567_133"/>
<feBlend mode="normal" in="SourceGraphic" in2="effect1_dropShadow_567_133" result="shape"/>
</filter>
<filter id="filter33_d_567_133" x="192" y="775.2" width="52.8" height="33.6" filterUnits="userSpaceOnUse" color-interpolation-filters="sRGB">
<feFlood flood-opacity="0" result="BackgroundImageFix"/>
<feColorMatrix in="SourceAlpha" type="matrix" values="0 0 0 0 0 0 0 0 0 0 0 0 0 0 0 0 0 0 127 0" result="hardAlpha"/>
<feOffset dx="4" dy="-1"/>
<feGaussianBlur stdDeviation="1.4"/>
<feComposite in2="hardAlpha" operator="out"/>
<feColorMatrix type="matrix" values="0 0 0 0 0 0 0 0 0 0 0 0 0 0 0 0 0 0 0.25 0"/>
<feBlend mode="normal" in2="BackgroundImageFix" result="effect1_dropShadow_567_133"/>
<feBlend mode="normal" in="SourceGraphic" in2="effect1_dropShadow_567_133" result="shape"/>
</filter>
<clipPath id="clip0_567_133">
<rect width="943" height="1235" fill="white"/>
</clipPath>
</defs>
</svg>
